<?xml version="1.0" encoding="UTF-8"?>
<!DOCTYPE svg PUBLIC "-//W3C//DTD SVG 1.1//EN" "http://www.w3.org/Graphics/SVG/1.1/DTD/svg11.dtd">
<!-- Creator: CorelDRAW -->
<svg xmlns="http://www.w3.org/2000/svg" xml:space="preserve" width="378.727mm" height="125.947mm" version="1.1" style="shape-rendering:geometricPrecision; text-rendering:geometricPrecision; image-rendering:optimizeQuality; fill-rule:evenodd; clip-rule:evenodd"
viewBox="0 0 36013.97 11976.58"
 xmlns:xlink="http://www.w3.org/1999/xlink"
 xmlns:xodm="http://www.corel.com/coreldraw/odm/2003">
 <defs>
  <style type="text/css">
   <![CDATA[
    .fil1 {fill:#953362;fill-rule:nonzero}
    .fil0 {fill:#953362;fill-rule:nonzero}
   ]]>
  </style>
 </defs>
 <g id="Capa_x0020_1">
  <metadata id="CorelCorpID_0Corel-Layer"/>
  <g id="_2902997717344">
   <g>
    <path class="fil0" d="M5036.05 1117.13c75.03,231.34 262.61,350.14 525.21,350.14 264.7,0 450.19,-120.88 527.31,-333.47 6.25,-14.59 4.17,-22.93 -10.42,-29.18l-335.55 -143.81c-14.6,-6.25 -25.01,-2.08 -31.27,14.6 -31.27,70.86 -68.78,104.2 -139.64,104.2 -60.44,0 -102.12,-27.09 -120.88,-85.45 -10.42,-33.35 -16.67,-70.86 -16.67,-260.52 0,-189.66 6.25,-227.18 16.67,-260.52 18.76,-58.36 60.44,-85.45 120.88,-85.45 70.86,0 108.38,33.35 139.64,104.21 6.26,16.67 16.67,20.84 31.27,14.59l335.55 -143.81c14.59,-6.26 16.67,-14.59 10.42,-29.18 -77.12,-212.59 -262.61,-333.47 -527.31,-333.47 -262.61,0 -450.19,118.8 -525.21,350.15 -33.35,100.04 -43.77,181.32 -43.77,383.49 0,202.17 10.42,283.45 43.77,383.5zm1840.34 350.14c254.28,0 471.03,-114.63 548.15,-352.23 37.51,-118.8 43.76,-204.25 43.76,-381.41 0,-177.16 -6.25,-262.61 -43.76,-381.41 -77.12,-237.6 -293.87,-352.23 -548.15,-352.23 -254.27,0 -471.03,114.63 -548.14,352.23 -37.51,118.8 -43.77,204.25 -43.77,381.41 0,177.16 6.26,262.61 43.77,381.41 77.11,237.6 293.87,352.23 548.14,352.23zm0 -387.66c-64.61,0 -114.62,-31.26 -133.39,-89.61 -14.59,-45.85 -16.67,-106.29 -16.67,-256.36 0,-150.07 2.08,-210.51 16.67,-256.35 18.76,-58.36 68.78,-89.62 133.39,-89.62 64.62,0 114.63,31.27 133.4,89.62 14.59,45.84 16.67,106.28 16.67,256.35 0,150.07 -2.08,210.51 -16.67,256.36 -18.76,58.36 -68.78,89.61 -133.4,89.61zm846.19 341.81c0,12.5 8.33,20.84 20.84,20.84l352.22 0c12.5,0 20.84,-8.34 20.84,-20.84l0 -698.21 12.5 0 335.55 698.21c6.26,14.59 22.93,20.84 35.43,20.84l373.08 0c12.5,0 20.84,-8.34 20.84,-20.84l0 -1375.57c0,-12.5 -8.34,-20.84 -20.84,-20.84l-352.23 0c-12.5,0 -20.84,8.34 -20.84,20.84l0 698.21 -10.41 0 -337.64 -698.21c-6.26,-14.59 -22.93,-20.84 -35.43,-20.84l-373.07 0c-12.51,0 -20.84,8.34 -20.84,20.84l0 1375.57zm2000.82 45.85c395.99,0 606.5,-193.83 606.5,-462.69 0,-281.37 -160.48,-425.18 -496.04,-471.03l-75.03 -10.42c-102.13,-14.59 -135.48,-35.43 -135.48,-77.11 0,-43.77 37.52,-77.12 120.89,-77.12 108.38,0 214.67,41.69 306.37,102.13 10.42,6.26 20.84,4.17 29.18,-6.26l187.58 -266.77c10.42,-14.59 8.33,-27.09 -4.17,-35.43 -135.47,-102.13 -325.13,-162.57 -535.64,-162.57 -337.63,0 -552.31,181.33 -552.31,450.19 0,279.29 172.98,423.09 498.12,468.95l75.03 10.42c108.38,14.59 133.39,37.51 133.39,75.03 0,56.28 -52.1,91.71 -162.56,91.71 -131.31,0 -266.78,-66.7 -345.98,-137.56 -8.33,-8.34 -18.75,-8.34 -27.09,2.08l-220.93 260.52c-10.42,12.5 -6.25,29.18 2.09,37.52 108.38,110.46 352.22,208.41 596.08,208.41zm1427.67 0c358.49,0 585.66,-195.91 585.66,-602.33l0 -819.09c0,-12.5 -8.34,-20.84 -20.84,-20.84l-395.99 0c-12.5,0 -20.84,8.34 -20.84,20.84l0 856.6c0,110.47 -50.02,177.16 -150.07,177.16 -100.04,0 -150.06,-66.69 -150.06,-177.16l0 -856.6c0,-12.5 -8.34,-20.84 -20.84,-20.84l-396 0c-12.5,0 -20.83,8.34 -20.83,20.84l0 819.09c0,406.42 229.26,602.33 589.82,602.33zm867.02 -45.85c0,12.5 8.33,20.84 20.84,20.84l998.33 0c12.5,0 20.84,-8.34 20.84,-20.84l0 -345.97c0,-12.5 -8.34,-20.84 -20.84,-20.84l-568.98 0c-8.34,0 -12.5,-4.17 -12.5,-12.5l0 -996.24c0,-12.5 -8.34,-20.84 -20.84,-20.84l-395.99 0c-12.51,0 -20.84,8.34 -20.84,20.84l0 1375.57zm1846.59 20.84c12.5,0 20.84,-8.34 20.84,-20.84l0 -996.24c0,-8.34 4.17,-12.5 12.5,-12.5l335.56 0c12.5,0 20.83,-8.34 20.83,-20.84l0 -345.97c0,-12.5 -8.33,-20.84 -20.83,-20.84l-1133.8 0c-12.5,0 -20.84,8.34 -20.84,20.84l0 345.97c0,12.5 8.34,20.84 20.84,20.84l335.55 0c8.34,0 12.5,4.17 12.5,12.5l0 996.24c0,12.5 8.34,20.84 20.84,20.84l395.99 0zm360.56 -20.84c-4.17,12.5 2.08,20.84 14.59,20.84l423.09 0c14.59,0 22.93,-8.34 27.09,-20.84l52.11 -185.49 416.84 0 52.1 185.49c4.17,12.5 12.5,20.84 27.1,20.84l423.08 0c12.5,0 18.76,-8.34 14.6,-20.84l-479.37 -1375.57c-4.17,-12.5 -12.5,-20.84 -27.09,-20.84l-425.18 0c-14.59,0 -22.93,8.34 -27.09,20.84l-491.87 1375.57zm616.92 -541.89l108.38 -377.23 6.26 0 104.21 377.23 -218.85 0zm1452.69 235.51c77.11,237.6 293.87,352.23 548.14,352.23 266.78,0 473.11,-127.14 552.31,-370.98 31.27,-95.87 39.6,-191.74 39.6,-339.73l0 -97.95c0,-12.5 -8.33,-20.84 -20.84,-20.84l-527.3 0c-12.5,0 -20.84,8.34 -20.84,20.84l0 273.03c0,12.5 8.34,20.84 20.84,20.84l108.38 0c8.34,0 12.5,4.17 12.5,14.59 0,12.5 -2.08,25.01 -6.25,37.51 -14.6,45.85 -66.7,75.03 -141.73,75.03 -77.12,0 -129.22,-31.26 -147.98,-89.61 -14.59,-45.85 -18.75,-106.29 -18.75,-256.36 0,-150.07 2.08,-208.41 16.67,-254.27 18.76,-58.36 66.7,-91.71 135.47,-91.71 75.04,0 114.63,22.93 152.15,79.2 8.34,12.5 20.84,14.59 35.43,8.33l325.14 -137.55c14.59,-6.26 18.75,-18.76 10.42,-35.43 -91.71,-195.92 -268.86,-302.21 -525.22,-302.21 -254.27,0 -471.03,114.63 -548.14,352.23 -37.51,118.8 -43.77,204.25 -43.77,381.41 0,177.16 6.26,262.61 43.77,381.41zm1394.33 306.38c0,12.5 8.33,20.84 20.84,20.84l948.31 0c12.5,0 20.83,-8.34 20.83,-20.84l0 -320.96c0,-12.5 -8.33,-20.84 -20.83,-20.84l-523.14 0c-8.33,0 -12.5,-4.17 -12.5,-12.5l0 -150.06c0,-8.34 4.17,-12.5 12.5,-12.5l418.93 0c12.5,0 20.84,-8.34 20.84,-20.84l0 -312.63c0,-12.5 -8.34,-20.83 -20.84,-20.83l-418.93 0c-8.33,0 -12.5,-4.17 -12.5,-12.5l0 -137.56c0,-8.34 4.17,-12.5 12.5,-12.5l523.14 0c12.5,0 20.83,-8.34 20.83,-20.84l0 -320.96c0,-12.5 -8.33,-20.84 -20.83,-20.84l-948.31 0c-12.51,0 -20.84,8.34 -20.84,20.84l0 1375.57zm1244.26 0c0,12.5 8.33,20.84 20.84,20.84l352.22 0c12.5,0 20.84,-8.34 20.84,-20.84l0 -698.21 12.5 0 335.55 698.21c6.26,14.59 22.93,20.84 35.43,20.84l373.08 0c12.5,0 20.84,-8.34 20.84,-20.84l0 -1375.57c0,-12.5 -8.34,-20.84 -20.84,-20.84l-352.23 0c-12.5,0 -20.84,8.34 -20.84,20.84l0 698.21 -10.41 0 -337.64 -698.21c-6.26,-14.59 -22.93,-20.84 -35.43,-20.84l-373.07 0c-12.51,0 -20.84,8.34 -20.84,20.84l0 1375.57zm1454.76 0c0,12.5 8.33,20.84 20.84,20.84l948.31 0c12.5,0 20.83,-8.34 20.83,-20.84l0 -320.96c0,-12.5 -8.33,-20.84 -20.83,-20.84l-523.14 0c-8.33,0 -12.5,-4.17 -12.5,-12.5l0 -150.06c0,-8.34 4.17,-12.5 12.5,-12.5l418.93 0c12.5,0 20.84,-8.34 20.84,-20.84l0 -312.63c0,-12.5 -8.34,-20.83 -20.84,-20.83l-418.93 0c-8.33,0 -12.5,-4.17 -12.5,-12.5l0 -137.56c0,-8.34 4.17,-12.5 12.5,-12.5l523.14 0c12.5,0 20.83,-8.34 20.83,-20.84l0 -320.96c0,-12.5 -8.33,-20.84 -20.83,-20.84l-948.31 0c-12.51,0 -20.84,8.34 -20.84,20.84l0 1375.57zm2413.49 20.84c14.6,0 18.76,-12.5 14.6,-22.93l-237.6 -518.97c141.73,-83.37 212.59,-225.09 212.59,-398.08 0,-277.2 -181.33,-477.29 -546.07,-477.29l-591.9 0c-12.51,0 -20.84,8.34 -20.84,20.84l0 1375.57c0,12.5 8.33,20.84 20.84,20.84l393.91 0c12.5,0 20.84,-8.34 20.84,-20.84l0 -429.34c0,-8.34 4.17,-12.5 12.5,-12.5l72.95 0 181.32 441.85c6.26,14.59 12.5,20.84 31.27,20.84l435.59 0zm-589.82 -812.84l-131.3 0c-8.34,0 -12.5,-4.17 -12.5,-12.5l0 -216.75c0,-8.34 4.17,-12.5 12.5,-12.5l131.3 0c93.79,0 141.73,45.85 141.73,120.88 0,75.03 -47.94,120.88 -141.73,120.88zm764.89 791.99c-4.17,12.5 2.08,20.84 14.59,20.84l423.09 0c14.59,0 22.93,-8.34 27.09,-20.84l52.11 -185.49 416.84 0 52.1 185.49c4.17,12.5 12.5,20.84 27.1,20.84l423.08 0c12.5,0 18.76,-8.34 14.6,-20.84l-479.37 -1375.57c-4.17,-12.5 -12.5,-20.84 -27.09,-20.84l-425.18 0c-14.59,0 -22.93,8.34 -27.09,20.84l-491.87 1375.57zm616.92 -541.89l108.38 -377.23 6.26 0 104.21 377.23 -218.85 0zm1037.93 541.89c0,12.5 8.33,20.84 20.84,20.84l998.33 0c12.5,0 20.84,-8.34 20.84,-20.84l0 -345.97c0,-12.5 -8.34,-20.84 -20.84,-20.84l-568.98 0c-8.34,0 -12.5,-4.17 -12.5,-12.5l0 -996.24c0,-12.5 -8.34,-20.84 -20.84,-20.84l-395.99 0c-12.51,0 -20.84,8.34 -20.84,20.84l0 1375.57zm-14496.37 1769.77c-10.18,0 -17.34,-5.51 -21.75,-16.52l-223.85 -459.26 -246.97 0c-6.61,0 -9.91,3.31 -9.91,9.92l0 449.34c0,11.01 -5.51,16.52 -16.79,16.52l-115.09 0c-11.29,0 -16.79,-5.51 -16.79,-16.52l0 -1090.31c0,-11.01 5.51,-16.52 16.52,-16.52l407.21 0c53.14,0 101.05,7.7 144,23.13 43.23,15.41 80.12,37.17 110.95,65.25 31.11,28.08 55.07,62.23 72.14,102.42 17.08,40.2 25.61,84.53 25.61,132.99 0,75.99 -19.83,140.41 -59.47,193.27 -39.64,52.86 -93.61,90.31 -161.89,112.34l239.54 474.11c3.31,5.51 3.85,10.19 1.65,14.05 -2.21,3.85 -6.06,5.78 -11.56,5.78l-133.54 0zm-230.72 -612.89c65.8,0 116.74,-16.24 153.08,-48.73 36.07,-32.49 54.24,-78.47 54.24,-137.94 0,-59.47 -18.17,-105.46 -54.24,-137.94 -36.34,-32.49 -87.28,-48.73 -153.08,-48.73l-261.85 0c-6.61,0 -9.91,3.3 -9.91,9.91l0 353.52c0,6.61 3.3,9.91 9.91,9.91l261.85 0zm970.54 631.06c-80.4,0 -147.85,-18.45 -202.37,-55.34 -54.52,-36.9 -92.79,-90.03 -114.81,-159.41 -8.82,-25.33 -15.41,-53.41 -19.83,-84.25 -4.4,-30.84 -6.61,-69.38 -6.61,-115.64 0,-46.25 1.93,-85.08 5.78,-116.46 3.86,-31.39 10.19,-59.19 19,-83.42 22.03,-69.39 60.3,-122.25 114.81,-158.59 54.52,-36.34 119.77,-54.52 195.76,-54.52 76,0 141.25,18.45 195.77,55.34 54.52,36.9 92.78,89.48 114.8,157.77 4.41,13.21 7.99,26.7 10.75,40.47 2.75,13.77 5.23,29.46 7.43,47.08 2.21,17.62 3.86,37.72 4.96,60.3 1.09,22.57 1.65,48.73 1.65,78.47 0,11.01 -6.06,16.52 -18.17,16.52l-500.55 0c-6.61,0 -9.91,3.31 -9.91,9.91 0,22.03 1.09,40.2 3.3,54.52 2.21,14.32 5.51,28.09 9.91,41.3 15.42,46.26 40.2,80.68 74.34,103.25 34.14,22.57 75.99,33.86 125.55,33.86 47.36,0 87.55,-8.25 120.6,-24.77 33.04,-16.53 60.57,-37.45 82.6,-62.78 8.82,-8.81 17.07,-9.91 24.78,-3.3l67.73 61.12c7.7,6.61 8.25,14.32 1.65,23.14 -31.93,39.64 -74.06,72.14 -126.38,97.46 -52.31,25.33 -113.16,38 -182.54,38zm175.11 -484.03c6.61,0 9.91,-3.31 9.91,-9.92 0,-36.06 -3.85,-65.53 -11.56,-88.38 -13.22,-39.37 -35.52,-69.66 -66.91,-91.14 -31.39,-21.2 -69.66,-31.93 -114.81,-31.93 -45.15,0 -83.42,10.74 -114.8,31.93 -31.39,21.48 -53.7,51.77 -66.91,91.14 -7.71,22.85 -11.56,52.32 -11.56,88.38 0,6.61 3.3,9.92 9.91,9.92l366.74 0zm665.75 465.86c-9.91,0 -16.52,-5.51 -19.83,-16.52l-284.14 -758.27c-3.31,-11.01 1.1,-16.52 13.22,-16.52l113.99 0c9.91,0 17.07,5.51 21.47,16.52l204.85 568.29 3.3 0 199.89 -568.29c3.3,-11.01 9.91,-16.52 19.82,-16.52l112.34 0c12.11,0 16.52,5.51 13.22,16.52l-282.49 758.27c-3.31,11.01 -10.47,16.52 -21.48,16.52l-94.16 0zm669.05 -969.71c-11.01,0 -16.52,-5.51 -16.52,-16.52l0 -120.6c0,-11.01 5.51,-16.52 16.52,-16.52l112.33 0c11.02,0 16.53,5.51 16.53,16.52l0 120.6c0,11.01 -5.51,16.52 -16.53,16.52l-112.33 0zm3.31 969.71c-11.02,0 -16.53,-5.51 -16.53,-16.52l0 -758.27c0,-11.01 5.51,-16.52 16.53,-16.52l105.72 0c11.01,0 16.52,5.51 16.52,16.52l0 758.27c0,11.01 -5.51,16.52 -16.52,16.52l-105.72 0zm745.05 18.17c-38.55,0 -74.34,-3.58 -107.38,-10.74 -33.04,-7.16 -63.06,-16.52 -90.03,-28.09 -26.99,-11.56 -51.22,-24.23 -72.69,-37.99 -21.47,-13.77 -40.47,-27.81 -57,-42.13 -7.7,-7.71 -7.7,-15.42 0,-23.13l67.73 -72.69c7.71,-7.71 15.42,-7.71 23.13,0 29.74,25.33 65.8,46.8 108.21,64.42 42.4,17.62 87.84,26.44 136.29,26.44 58.38,0 101.87,-11.29 130.51,-33.87 28.63,-22.57 42.94,-51.48 42.94,-86.72 0,-30.84 -10.18,-55.34 -30.55,-73.52 -20.38,-18.17 -61.4,-30.56 -123.08,-37.17l-84.25 -8.25c-78.19,-8.82 -137.11,-31.94 -176.76,-69.39 -39.65,-37.44 -59.47,-88.65 -59.47,-153.63 0,-75.99 25.6,-135.18 76.82,-177.58 51.21,-42.4 123.62,-63.61 217.24,-63.61 58.37,0 111.51,8.26 159.41,24.78 47.91,16.52 88.38,37.45 121.42,62.78 8.81,5.51 9.91,13.21 3.3,23.13l-56.17 71.03c-6.6,7.71 -14.31,8.81 -23.13,3.3 -25.32,-16.52 -56.99,-31.38 -94.99,-44.6 -37.99,-13.22 -77.37,-19.83 -118.11,-19.83 -49.56,0 -87.01,10.18 -112.33,30.56 -25.33,20.38 -38,46.53 -38,78.47 0,31.94 11.01,56.44 33.04,73.52 22.3,17.07 63.05,28.36 122.79,33.86l82.87 8.26c80.68,7.7 140.7,30.83 179.79,69.38 39.38,38.55 58.92,89.76 58.92,153.63 0,78.19 -27.53,140.97 -82.6,188.33 -55.07,47.36 -134.36,71.03 -237.88,71.03zm1095.26 -18.17c-11.01,0 -16.52,-5.51 -16.52,-16.52l0 -69.39 -1.65 0c-18.72,29.74 -47.36,54.52 -85.9,74.34 -38.55,19.83 -88.11,29.74 -148.68,29.74 -37.45,0 -72.41,-4.95 -104.91,-14.87 -32.48,-9.91 -60.57,-25.05 -84.25,-44.87 -23.68,-19.83 -42.4,-44.61 -56.16,-74.62 -13.77,-29.74 -20.65,-64.7 -20.65,-104.34 0,-83.98 27.25,-145.93 81.77,-185.57 54.52,-39.92 130.24,-59.75 227.15,-59.75l180.07 0c6.61,0 9.92,-3.31 9.92,-9.92l0 -57.26c0,-54.79 -13.22,-94.16 -39.65,-118.11 -26.43,-23.95 -76.54,-36.07 -150.33,-36.07 -45.15,0 -82.6,5.23 -112.33,15.69 -29.74,10.46 -56.16,23.95 -79.3,40.47 -9.91,7.71 -17.62,7.16 -23.13,-1.65l-44.6 -76c-4.41,-8.81 -3.31,-16.52 3.3,-23.13 29.74,-23.13 67.18,-41.85 112.33,-56.16 45.16,-14.32 97.47,-21.48 156.94,-21.48 112.33,0 192.18,20.65 239.54,61.95 47.36,41.3 71.03,110.4 71.03,207.32l0 523.68c0,11.01 -5.51,16.52 -16.52,16.52l-97.47 0zm-219.71 -100.77c62.78,0 111.78,-13.49 147.02,-40.47 35.25,-26.99 52.87,-65.25 52.87,-114.81l0 -87.56c0,-6.6 -3.31,-9.91 -9.92,-9.91l-158.59 0c-69.39,0 -119.49,10.18 -150.33,30.56 -30.84,20.38 -46.25,53.14 -46.25,98.3 0,40.75 14.31,71.59 42.94,92.51 28.64,20.93 69.39,31.39 122.25,31.39zm629.41 -295.71c0,-44.05 2.21,-82.32 6.61,-114.81 4.41,-32.48 10.47,-60.84 18.17,-85.07 22.03,-69.39 60.57,-122.25 115.64,-158.59 55.07,-36.34 120.6,-54.52 196.58,-54.52 60.57,0 113.71,11.84 159.41,35.52 45.71,23.68 82.88,56.45 111.51,98.3 5.51,8.81 3.85,16.52 -4.95,23.13l-72.69 59.47c-8.82,6.61 -16.52,6.06 -23.13,-1.65 -23.13,-28.63 -47.36,-50.1 -72.69,-64.42 -25.33,-14.31 -57.83,-21.47 -97.47,-21.47 -42.95,0 -79.85,10.18 -110.68,30.56 -30.84,20.37 -52.87,51.48 -66.08,93.33 -6.61,20.93 -11.3,44.06 -14.05,69.38 -2.76,25.33 -4.13,55.62 -4.13,90.86 0,35.24 1.37,65.8 4.13,91.69 2.75,25.88 7.44,49.29 14.05,70.21 13.21,41.85 35.24,72.96 66.08,93.34 30.83,20.37 67.72,30.55 110.68,30.55 39.64,0 72.14,-7.15 97.47,-21.47 25.33,-14.32 49.56,-35.79 72.69,-64.42 6.61,-7.71 14.31,-8.26 23.13,-1.65l72.69 59.47c8.81,6.61 10.46,14.32 4.95,23.13 -28.63,41.85 -65.8,74.62 -111.51,98.3 -45.7,23.68 -98.84,35.52 -159.41,35.52 -75.99,0 -141.52,-18.17 -196.58,-54.52 -55.07,-36.34 -93.61,-89.21 -115.64,-158.59 -7.7,-24.23 -13.76,-52.6 -18.17,-85.08 -4.4,-32.49 -6.61,-71.31 -6.61,-116.47zm920.16 -573.24c-11.01,0 -16.52,-5.51 -16.52,-16.52l0 -120.6c0,-11.01 5.51,-16.52 16.52,-16.52l112.33 0c11.02,0 16.53,5.51 16.53,16.52l0 120.6c0,11.01 -5.51,16.52 -16.53,16.52l-112.33 0zm3.31 969.71c-11.02,0 -16.53,-5.51 -16.53,-16.52l0 -758.27c0,-11.01 5.51,-16.52 16.53,-16.52l105.72 0c11.01,0 16.52,5.51 16.52,16.52l0 758.27c0,11.01 -5.51,16.52 -16.52,16.52l-105.72 0zm703.75 -920.15c-12.11,0 -15.42,-5.51 -9.92,-16.53l125.55 -203.19c6.61,-11.01 15.98,-16.52 28.09,-16.52l109.02 0c5.52,0 9.09,1.65 10.75,4.95 1.65,3.31 0.83,7.16 -2.48,11.56l-151.98 203.19c-8.82,11.02 -19.28,16.53 -31.39,16.53l-77.64 0zm59.47 938.32c-77.09,0 -142.9,-18.72 -197.41,-56.17 -54.52,-37.44 -92.79,-89.76 -114.81,-156.93 -8.82,-27.54 -15.41,-56.45 -19.83,-86.73 -4.4,-30.29 -6.61,-68.55 -6.61,-114.81 0,-46.25 2.21,-84.25 6.61,-113.99 4.41,-29.74 11.01,-58.37 19.83,-85.9 22.02,-68.29 60.3,-120.87 114.81,-157.77 54.52,-36.9 120.32,-55.34 197.41,-55.34 77.09,0 142.9,18.45 197.41,55.34 54.52,36.9 92.78,89.48 114.81,157.77 8.81,27.53 15.41,56.16 19.82,85.9 4.41,29.74 6.61,67.73 6.61,113.99 0,46.26 -2.2,84.53 -6.61,114.81 -4.4,30.29 -11.01,59.19 -19.82,86.73 -22.03,67.17 -60.3,119.49 -114.81,156.93 -54.52,37.45 -120.32,56.17 -197.41,56.17zm0 -128.86c44.05,0 81.49,-10.74 112.33,-32.21 30.84,-21.48 52.86,-52.03 66.08,-91.69 6.61,-22.02 11.29,-44.87 14.05,-68.55 2.75,-23.68 4.13,-54.79 4.13,-93.34 0,-38.54 -1.38,-69.38 -4.13,-92.51 -2.76,-23.13 -7.44,-45.71 -14.05,-67.73 -13.22,-39.64 -35.24,-70.21 -66.08,-91.69 -30.84,-21.47 -68.29,-32.21 -112.33,-32.21 -44.06,0 -81.5,10.74 -112.33,32.21 -30.84,21.48 -52.87,52.04 -66.08,91.69 -6.61,22.02 -11.3,44.61 -14.05,67.73 -2.76,23.13 -4.13,53.96 -4.13,92.51 0,38.55 1.37,69.66 4.13,93.34 2.75,23.68 7.44,46.53 14.05,68.55 13.21,39.65 35.24,70.21 66.08,91.69 30.83,21.47 68.28,32.21 112.33,32.21zm1154.74 110.69c-11.02,0 -16.53,-5.51 -16.53,-16.52l0 -462.56c0,-63.87 -14.59,-113.44 -43.77,-148.68 -29.19,-35.24 -73.52,-52.86 -132.99,-52.86 -53.96,0 -97.75,17.34 -131.33,52.03 -33.6,34.69 -50.39,81.77 -50.39,141.24l0 470.82c0,11.01 -5.51,16.52 -16.52,16.52l-105.72 0c-11.02,0 -16.53,-5.51 -16.53,-16.52l0 -758.27c0,-11.01 5.51,-16.52 16.53,-16.52l105.72 0c11.01,0 16.52,5.51 16.52,16.52l0 72.69 1.65 0c18.72,-30.84 46.8,-56.44 84.25,-76.82 37.45,-20.37 83.15,-30.56 137.11,-30.56 85.91,0 153.08,26.99 201.54,80.95 48.46,53.96 72.69,126.1 72.69,216.41l0 495.59c0,11.01 -5.51,16.52 -16.52,16.52l-105.72 0zm733.47 -396.48c0,-44.05 2.21,-82.32 6.61,-114.81 4.41,-32.48 10.47,-60.84 18.17,-85.07 22.03,-69.39 60.57,-122.25 115.64,-158.59 55.07,-36.34 120.6,-54.52 196.58,-54.52 60.57,0 113.71,11.84 159.41,35.52 45.71,23.68 82.88,56.45 111.51,98.3 5.51,8.81 3.85,16.52 -4.95,23.13l-72.69 59.47c-8.82,6.61 -16.52,6.06 -23.13,-1.65 -23.13,-28.63 -47.36,-50.1 -72.69,-64.42 -25.33,-14.31 -57.83,-21.47 -97.47,-21.47 -42.95,0 -79.85,10.18 -110.68,30.56 -30.84,20.37 -52.87,51.48 -66.08,93.33 -6.61,20.93 -11.3,44.06 -14.05,69.38 -2.76,25.33 -4.13,55.62 -4.13,90.86 0,35.24 1.37,65.8 4.13,91.69 2.75,25.88 7.44,49.29 14.05,70.21 13.21,41.85 35.24,72.96 66.08,93.34 30.83,20.37 67.72,30.55 110.68,30.55 39.64,0 72.14,-7.15 97.47,-21.47 25.33,-14.32 49.56,-35.79 72.69,-64.42 6.61,-7.71 14.31,-8.26 23.13,-1.65l72.69 59.47c8.81,6.61 10.46,14.32 4.95,23.13 -28.63,41.85 -65.8,74.62 -111.51,98.3 -45.7,23.68 -98.84,35.52 -159.41,35.52 -75.99,0 -141.52,-18.17 -196.58,-54.52 -55.07,-36.34 -93.61,-89.21 -115.64,-158.59 -7.7,-24.23 -13.76,-52.6 -18.17,-85.08 -4.4,-32.49 -6.61,-71.31 -6.61,-116.47zm1197.7 414.65c-77.09,0 -142.9,-18.72 -197.41,-56.17 -54.52,-37.44 -92.79,-89.76 -114.81,-156.93 -8.82,-27.54 -15.41,-56.45 -19.83,-86.73 -4.4,-30.29 -6.61,-68.55 -6.61,-114.81 0,-46.25 2.21,-84.25 6.61,-113.99 4.41,-29.74 11.01,-58.37 19.83,-85.9 22.02,-68.29 60.3,-120.87 114.81,-157.77 54.52,-36.9 120.32,-55.34 197.41,-55.34 77.09,0 142.9,18.45 197.41,55.34 54.52,36.9 92.78,89.48 114.81,157.77 8.81,27.53 15.41,56.16 19.82,85.9 4.41,29.74 6.61,67.73 6.61,113.99 0,46.26 -2.2,84.53 -6.61,114.81 -4.4,30.29 -11.01,59.19 -19.82,86.73 -22.03,67.17 -60.3,119.49 -114.81,156.93 -54.52,37.45 -120.32,56.17 -197.41,56.17zm0 -128.86c44.05,0 81.49,-10.74 112.33,-32.21 30.84,-21.48 52.86,-52.03 66.08,-91.69 6.61,-22.02 11.29,-44.87 14.05,-68.55 2.75,-23.68 4.13,-54.79 4.13,-93.34 0,-38.54 -1.38,-69.38 -4.13,-92.51 -2.76,-23.13 -7.44,-45.71 -14.05,-67.73 -13.22,-39.64 -35.24,-70.21 -66.08,-91.69 -30.84,-21.47 -68.29,-32.21 -112.33,-32.21 -44.06,0 -81.5,10.74 -112.33,32.21 -30.84,21.48 -52.87,52.04 -66.08,91.69 -6.61,22.02 -11.3,44.61 -14.05,67.73 -2.76,23.13 -4.13,53.96 -4.13,92.51 0,38.55 1.37,69.66 4.13,93.34 2.75,23.68 7.44,46.53 14.05,68.55 13.21,39.65 35.24,70.21 66.08,91.69 30.83,21.47 68.28,32.21 112.33,32.21zm1651.98 110.69c-11.01,0 -16.52,-5.51 -16.52,-16.52l0 -462.56c0,-63.87 -14.59,-113.44 -43.77,-148.68 -29.19,-35.24 -73.52,-52.86 -132.99,-52.86 -52.86,0 -96.37,17.34 -130.5,52.03 -34.15,34.69 -51.22,81.77 -51.22,141.24l0 470.82c0,11.01 -5.51,16.52 -16.52,16.52l-105.72 0c-11.02,0 -16.53,-5.51 -16.53,-16.52l0 -462.56c0,-63.87 -14.59,-113.44 -43.77,-148.68 -29.19,-35.24 -73.52,-52.86 -132.99,-52.86 -53.96,0 -97.75,17.34 -131.33,52.03 -33.6,34.69 -50.39,81.77 -50.39,141.24l0 470.82c0,11.01 -5.51,16.52 -16.52,16.52l-105.72 0c-11.02,0 -16.53,-5.51 -16.53,-16.52l0 -758.27c0,-11.01 5.51,-16.52 16.53,-16.52l105.72 0c11.01,0 16.52,5.51 16.52,16.52l0 72.69 1.65 0c18.72,-30.84 46.8,-56.44 84.25,-76.82 37.45,-20.37 83.15,-30.56 137.11,-30.56 53.96,0 100.49,10.74 139.6,32.22 39.09,21.47 69.66,52.03 91.68,91.69l1.65 0c27.53,-38.55 61.95,-68.84 103.25,-90.86 41.3,-22.03 92.23,-33.04 152.8,-33.04 92.52,0 162.72,26.99 210.63,80.95 47.91,53.96 71.86,126.1 71.86,216.41l0 495.59c0,11.01 -5.51,16.52 -16.52,16.52l-105.73 0zm480.74 297.35c-11.02,0 -16.53,-5.51 -16.53,-16.52l0 -1055.62c0,-11.01 5.51,-16.52 16.53,-16.52l105.72 0c11.01,0 16.52,5.51 16.52,16.52l0 74.34 1.65 0c18.72,-31.94 45.98,-58.09 81.77,-78.47 35.79,-20.37 83.42,-30.56 142.9,-30.56 69.39,0 127.2,15.98 173.46,47.91 46.26,31.94 79.3,79.3 99.12,142.08 11.01,31.93 18.45,64.7 22.3,98.29 3.85,33.59 5.78,75.17 5.78,124.72 0,49.56 -1.93,91.41 -5.78,125.55 -3.85,34.15 -11.29,67.18 -22.3,99.12 -19.83,62.77 -52.86,110.13 -99.12,142.07 -46.25,31.94 -104.07,47.91 -173.46,47.91 -59.47,0 -107.1,-10.46 -142.9,-31.39 -35.79,-20.92 -63.05,-47.36 -81.77,-79.3l-1.65 0 0 373.35c0,11.01 -5.51,16.52 -16.52,16.52l-105.72 0zm315.53 -408.04c88.1,0 145.93,-40.2 173.46,-120.59 6.61,-20.93 11.29,-44.61 14.05,-71.03 2.75,-26.44 4.13,-57.83 4.13,-94.17 0,-35.24 -1.38,-66.08 -4.13,-92.51 -2.76,-26.44 -7.44,-50.67 -14.05,-72.69 -27.53,-79.3 -85.35,-118.94 -173.46,-118.94 -90.31,0 -148.68,39.64 -175.11,118.94 -6.61,19.83 -11.29,42.4 -14.05,67.73 -2.75,25.32 -4.13,57.82 -4.13,97.46 0,39.65 1.38,72.41 4.13,98.3 2.76,25.87 7.44,48.18 14.05,66.91 26.44,80.39 84.8,120.59 175.11,120.59zm826 118.95c-69.39,0 -118.95,-16.8 -148.69,-50.39 -29.74,-33.59 -44.6,-86.18 -44.6,-157.77l0 -906.93c0,-11.01 5.51,-16.52 16.52,-16.52l105.72 0c11.02,0 16.53,5.51 16.53,16.52l0 898.68c0,33.04 6.33,55.89 19,68.55 12.66,12.67 32.76,19 60.29,19l31.39 0c11.01,0 16.52,5.51 16.52,16.52l0 95.81c0,11.02 -5.51,16.53 -16.52,16.53l-56.16 0z"/>
    <path class="fil0" d="M23327.74 3209.36c-80.4,0 -147.85,-18.45 -202.37,-55.34 -54.52,-36.9 -92.79,-90.03 -114.81,-159.41 -8.82,-25.33 -15.41,-53.41 -19.83,-84.25 -4.4,-30.84 -6.61,-69.38 -6.61,-115.64 0,-46.25 1.93,-85.08 5.78,-116.46 3.86,-31.39 10.19,-59.19 19,-83.42 22.03,-69.39 60.3,-122.25 114.81,-158.59 54.52,-36.34 119.77,-54.52 195.76,-54.52 76,0 141.25,18.45 195.77,55.34 54.52,36.9 92.78,89.48 114.8,157.77 4.41,13.21 7.99,26.7 10.75,40.47 2.75,13.77 5.23,29.46 7.43,47.08 2.21,17.62 3.86,37.72 4.96,60.3 1.09,22.57 1.65,48.73 1.65,78.47 0,11.01 -6.06,16.52 -18.17,16.52l-500.55 0c-6.61,0 -9.91,3.31 -9.91,9.91 0,22.03 1.09,40.2 3.3,54.52 2.21,14.32 5.51,28.09 9.91,41.3 15.42,46.26 40.2,80.68 74.34,103.25 34.14,22.57 75.99,33.86 125.55,33.86 47.36,0 87.55,-8.25 120.6,-24.77 33.04,-16.53 60.57,-37.45 82.6,-62.78 8.82,-8.81 17.07,-9.91 24.78,-3.3l67.73 61.12c7.7,6.61 8.25,14.32 1.65,23.14 -31.93,39.64 -74.06,72.14 -126.38,97.46 -52.31,25.33 -113.16,38 -182.54,38zm175.11 -484.03c6.61,0 9.91,-3.31 9.91,-9.92 0,-36.06 -3.85,-65.53 -11.56,-88.38 -13.22,-39.37 -35.52,-69.66 -66.91,-91.14 -31.39,-21.2 -69.66,-31.93 -114.81,-31.93 -45.15,0 -83.42,10.74 -114.8,31.93 -31.39,21.48 -53.7,51.77 -66.91,91.14 -7.71,22.85 -11.56,52.32 -11.56,88.38 0,6.61 3.3,9.92 9.91,9.92l366.74 0zm683.92 474.12c-77.09,0 -131.88,-17.9 -164.38,-53.69 -32.48,-35.79 -48.73,-92.79 -48.73,-170.99l0 -452.64c0,-6.61 -3.31,-9.92 -9.92,-9.92l-66.08 0c-11.01,0 -16.52,-5.51 -16.52,-16.52l0 -79.3c0,-11.01 5.51,-16.52 16.52,-16.52l66.08 0c6.61,0 9.92,-3.3 9.92,-9.91l0 -223.02c0,-11.01 5.51,-16.52 16.52,-16.52l105.72 0c11.01,0 16.52,5.51 16.52,16.52l0 223.02c0,6.61 3.31,9.91 9.92,9.91l125.55 0c11.01,0 16.52,5.51 16.52,16.52l0 79.3c0,11.01 -5.51,16.52 -16.52,16.52l-125.55 0c-6.61,0 -9.92,3.31 -9.92,9.92l0 447.68c0,39.64 7.99,66.36 23.95,80.12 15.98,13.76 41.57,20.64 76.83,20.64l34.69 0c11.01,0 16.52,5.51 16.52,16.52l0 95.81c0,11.02 -5.51,16.53 -16.52,16.53l-61.13 0zm850.77 -8.26c-11.01,0 -16.52,-5.51 -16.52,-16.52l0 -69.39 -1.65 0c-18.72,29.74 -47.36,54.52 -85.9,74.34 -38.55,19.83 -88.11,29.74 -148.68,29.74 -37.45,0 -72.41,-4.95 -104.91,-14.87 -32.48,-9.91 -60.57,-25.05 -84.25,-44.87 -23.68,-19.83 -42.4,-44.61 -56.16,-74.62 -13.77,-29.74 -20.65,-64.7 -20.65,-104.34 0,-83.98 27.25,-145.93 81.77,-185.57 54.52,-39.92 130.24,-59.75 227.15,-59.75l180.07 0c6.61,0 9.92,-3.31 9.92,-9.92l0 -57.26c0,-54.79 -13.22,-94.16 -39.65,-118.11 -26.43,-23.95 -76.54,-36.07 -150.33,-36.07 -45.15,0 -82.6,5.23 -112.33,15.69 -29.74,10.46 -56.16,23.95 -79.3,40.47 -9.91,7.71 -17.62,7.16 -23.13,-1.65l-44.6 -76c-4.41,-8.81 -3.31,-16.52 3.3,-23.13 29.74,-23.13 67.18,-41.85 112.33,-56.16 45.16,-14.32 97.47,-21.48 156.94,-21.48 112.33,0 192.18,20.65 239.54,61.95 47.36,41.3 71.03,110.4 71.03,207.32l0 523.68c0,11.01 -5.51,16.52 -16.52,16.52l-97.47 0zm-219.71 -100.77c62.78,0 111.78,-13.49 147.02,-40.47 35.25,-26.99 52.87,-65.25 52.87,-114.81l0 -87.56c0,-6.6 -3.31,-9.91 -9.92,-9.91l-158.59 0c-69.39,0 -119.49,10.18 -150.33,30.56 -30.84,20.38 -46.25,53.14 -46.25,98.3 0,40.75 14.31,71.59 42.94,92.51 28.64,20.93 69.39,31.39 122.25,31.39zm657.5 -57.83c0,-11.01 5.51,-16.52 16.52,-16.52l115.64 0c11.01,0 16.52,5.51 16.52,16.52l0 153.64c0,8.81 -0.55,15.69 -1.65,20.64 -1.1,4.96 -3.85,10.19 -8.26,15.7l-102.41 135.46c-6.61,7.71 -13.77,11.56 -21.48,11.56 -9.91,0 -14.86,-4.95 -14.86,-14.86l0 -322.14zm-19214.29 1783.52c-11.02,0 -16.53,-5.51 -16.53,-16.52l0 -76 -1.65 0c-18.72,31.94 -45.99,58.38 -81.78,79.3 -35.79,20.93 -83.42,31.39 -142.9,31.39 -69.38,0 -127.2,-15.97 -173.46,-47.91 -46.25,-31.94 -79.3,-79.3 -99.11,-142.07 -11.01,-31.94 -18.45,-64.98 -22.31,-99.12 -3.85,-34.14 -5.78,-75.99 -5.78,-125.55 0,-49.55 1.93,-91.14 5.78,-124.72 3.86,-33.59 11.3,-66.36 22.31,-98.29 19.82,-62.78 52.86,-110.14 99.11,-142.08 46.25,-31.93 104.08,-47.91 173.46,-47.91 59.47,0 107.1,10.19 142.9,30.56 35.79,20.38 63.06,46.53 81.78,78.47l1.65 0 0 -406.39c0,-11.01 5.51,-16.52 16.53,-16.52l105.72 0c11.01,0 16.52,5.51 16.52,16.52l0 1090.31c0,11.01 -5.51,16.52 -16.52,16.52l-105.72 0zm-209.8 -110.69c90.31,0 148.68,-40.2 175.1,-120.59 6.61,-18.72 11.29,-41.03 14.05,-66.91 2.76,-25.88 4.13,-58.64 4.13,-98.3 0,-39.64 -1.37,-72.14 -4.13,-97.46 -2.76,-25.33 -7.44,-47.91 -14.05,-67.73 -26.43,-79.3 -84.79,-118.94 -175.1,-118.94 -88.11,0 -145.93,39.64 -173.46,118.94 -6.61,22.02 -11.3,46.25 -14.05,72.69 -2.76,26.43 -4.13,57.26 -4.13,92.51 0,36.34 1.37,67.73 4.13,94.17 2.75,26.43 7.44,50.1 14.05,71.03 27.53,80.39 85.35,120.59 173.46,120.59zm695.49 -859.03c-11.01,0 -16.52,-5.51 -16.52,-16.52l0 -120.6c0,-11.01 5.51,-16.52 16.52,-16.52l112.33 0c11.02,0 16.53,5.51 16.53,16.52l0 120.6c0,11.01 -5.51,16.52 -16.53,16.52l-112.33 0zm3.31 969.71c-11.02,0 -16.53,-5.51 -16.53,-16.52l0 -758.27c0,-11.01 5.51,-16.52 16.53,-16.52l105.72 0c11.01,0 16.52,5.51 16.52,16.52l0 758.27c0,11.01 -5.51,16.52 -16.52,16.52l-105.72 0zm951.54 0c-11.01,0 -16.52,-5.51 -16.52,-16.52l0 -69.39 -1.65 0c-18.72,29.74 -47.36,54.52 -85.9,74.34 -38.55,19.83 -88.11,29.74 -148.68,29.74 -37.45,0 -72.41,-4.95 -104.91,-14.87 -32.48,-9.91 -60.57,-25.05 -84.25,-44.87 -23.68,-19.83 -42.4,-44.61 -56.16,-74.62 -13.77,-29.74 -20.65,-64.7 -20.65,-104.34 0,-83.98 27.25,-145.93 81.77,-185.57 54.52,-39.92 130.24,-59.75 227.15,-59.75l180.07 0c6.61,0 9.92,-3.31 9.92,-9.92l0 -57.26c0,-54.79 -13.22,-94.16 -39.65,-118.11 -26.43,-23.95 -76.54,-36.07 -150.33,-36.07 -45.15,0 -82.6,5.23 -112.33,15.69 -29.74,10.46 -56.16,23.95 -79.3,40.47 -9.91,7.71 -17.62,7.16 -23.13,-1.65l-44.6 -76c-4.41,-8.81 -3.31,-16.52 3.3,-23.13 29.74,-23.13 67.18,-41.85 112.33,-56.16 45.16,-14.32 97.47,-21.48 156.94,-21.48 112.33,0 192.18,20.65 239.54,61.95 47.36,41.3 71.03,110.4 71.03,207.32l0 523.68c0,11.01 -5.51,16.52 -16.52,16.52l-97.47 0zm-219.71 -100.77c62.78,0 111.78,-13.49 147.02,-40.47 35.25,-26.99 52.87,-65.25 52.87,-114.81l0 -87.56c0,-6.6 -3.31,-9.91 -9.92,-9.91l-158.59 0c-69.39,0 -119.49,10.18 -150.33,30.56 -30.84,20.38 -46.25,53.14 -46.25,98.3 0,40.75 14.31,71.59 42.94,92.51 28.64,20.93 69.39,31.39 122.25,31.39zm935.02 416.29c-56.16,0 -109.3,-10.74 -159.41,-32.21 -50.11,-21.48 -88.38,-49.84 -114.81,-85.08 -6.61,-7.71 -6.06,-15.42 1.65,-23.13l67.73 -67.73c7.7,-7.71 15.97,-7.71 24.77,0 27.54,25.33 55.9,44.88 85.08,58.64 29.18,13.77 63.06,20.65 101.6,20.65 66.08,0 115.92,-17.34 149.5,-52.03 33.6,-34.7 50.39,-88.39 50.39,-161.08l0 -92.51 -1.65 0c-18.72,33.04 -45.43,59.47 -80.12,79.3 -34.69,19.82 -81.22,29.74 -139.59,29.74 -67.18,0 -123.35,-16.25 -168.5,-48.73 -45.16,-32.49 -77.64,-80.12 -97.47,-142.9 -9.91,-29.74 -16.79,-60.3 -20.64,-91.69 -3.86,-31.39 -5.78,-70.21 -5.78,-116.47 0,-46.25 1.92,-85.07 5.78,-116.46 3.85,-31.39 10.74,-61.95 20.64,-91.69 19.83,-62.77 52.31,-110.4 97.47,-142.9 45.15,-32.48 101.32,-48.73 168.5,-48.73 58.37,0 104.9,9.92 139.59,29.74 34.7,19.83 61.4,46.26 80.12,79.3l1.65 0 0 -74.34c0,-11.01 5.51,-16.52 16.52,-16.52l105.72 0c11.02,0 16.53,5.51 16.53,16.52l0 740.09c0,113.44 -29.46,200.16 -88.39,260.18 -58.92,60.02 -144.54,90.03 -256.88,90.03zm19 -454.29c85.08,0 141.52,-39.64 169.33,-118.67 6.61,-19.55 11.29,-41.57 14.05,-65.8 2.75,-24.23 4.13,-53.14 4.13,-87.28 0,-34.15 -1.38,-62.78 -4.13,-86.46 -2.76,-23.68 -7.44,-45.98 -14.05,-66.63 -27.81,-77.92 -84.25,-117.01 -169.33,-117.01 -83.98,0 -139.86,39.09 -167.68,117.01 -6.61,20.65 -11.56,43.5 -14.86,68.29 -3.31,24.78 -4.96,52.86 -4.96,84.8 0,62.49 6.61,113.71 19.83,153.08 27.81,79.02 83.7,118.67 167.68,118.67zm1190.26 138.77c-11.02,0 -16.53,-5.51 -16.53,-16.52l0 -462.56c0,-63.87 -14.59,-113.44 -43.77,-148.68 -29.19,-35.24 -73.52,-52.86 -132.99,-52.86 -53.96,0 -97.75,17.34 -131.33,52.03 -33.6,34.69 -50.39,81.77 -50.39,141.24l0 470.82c0,11.01 -5.51,16.52 -16.52,16.52l-105.72 0c-11.02,0 -16.53,-5.51 -16.53,-16.52l0 -758.27c0,-11.01 5.51,-16.52 16.53,-16.52l105.72 0c11.01,0 16.52,5.51 16.52,16.52l0 72.69 1.65 0c18.72,-30.84 46.8,-56.44 84.25,-76.82 37.45,-20.37 83.15,-30.56 137.11,-30.56 85.91,0 153.08,26.99 201.54,80.95 48.46,53.96 72.69,126.1 72.69,216.41l0 495.59c0,11.01 -5.51,16.52 -16.52,16.52l-105.72 0zm695.49 -920.15c-12.11,0 -15.42,-5.51 -9.92,-16.53l125.55 -203.19c6.61,-11.01 15.98,-16.52 28.09,-16.52l109.02 0c5.52,0 9.09,1.65 10.75,4.95 1.65,3.31 0.83,7.16 -2.48,11.56l-151.98 203.19c-8.82,11.02 -19.28,16.53 -31.39,16.53l-77.64 0zm59.47 938.32c-77.09,0 -142.9,-18.72 -197.41,-56.17 -54.52,-37.44 -92.79,-89.76 -114.81,-156.93 -8.82,-27.54 -15.41,-56.45 -19.83,-86.73 -4.4,-30.29 -6.61,-68.55 -6.61,-114.81 0,-46.25 2.21,-84.25 6.61,-113.99 4.41,-29.74 11.01,-58.37 19.83,-85.9 22.02,-68.29 60.3,-120.87 114.81,-157.77 54.52,-36.9 120.32,-55.34 197.41,-55.34 77.09,0 142.9,18.45 197.41,55.34 54.52,36.9 92.78,89.48 114.81,157.77 8.81,27.53 15.41,56.16 19.82,85.9 4.41,29.74 6.61,67.73 6.61,113.99 0,46.26 -2.2,84.53 -6.61,114.81 -4.4,30.29 -11.01,59.19 -19.82,86.73 -22.03,67.17 -60.3,119.49 -114.81,156.93 -54.52,37.45 -120.32,56.17 -197.41,56.17zm0 -128.86c44.05,0 81.49,-10.74 112.33,-32.21 30.84,-21.48 52.86,-52.03 66.08,-91.69 6.61,-22.02 11.29,-44.87 14.05,-68.55 2.75,-23.68 4.13,-54.79 4.13,-93.34 0,-38.54 -1.38,-69.38 -4.13,-92.51 -2.76,-23.13 -7.44,-45.71 -14.05,-67.73 -13.22,-39.64 -35.24,-70.21 -66.08,-91.69 -30.84,-21.47 -68.29,-32.21 -112.33,-32.21 -44.06,0 -81.5,10.74 -112.33,32.21 -30.84,21.48 -52.87,52.04 -66.08,91.69 -6.61,22.02 -11.3,44.61 -14.05,67.73 -2.76,23.13 -4.13,53.96 -4.13,92.51 0,38.55 1.37,69.66 4.13,93.34 2.75,23.68 7.44,46.53 14.05,68.55 13.21,39.65 35.24,70.21 66.08,91.69 30.83,21.47 68.28,32.21 112.33,32.21zm913.55 128.86c-38.55,0 -74.34,-3.58 -107.38,-10.74 -33.04,-7.16 -63.06,-16.52 -90.03,-28.09 -26.99,-11.56 -51.22,-24.23 -72.69,-37.99 -21.47,-13.77 -40.47,-27.81 -57,-42.13 -7.7,-7.71 -7.7,-15.42 0,-23.13l67.73 -72.69c7.71,-7.71 15.42,-7.71 23.13,0 29.74,25.33 65.8,46.8 108.21,64.42 42.4,17.62 87.84,26.44 136.29,26.44 58.38,0 101.87,-11.29 130.51,-33.87 28.63,-22.57 42.94,-51.48 42.94,-86.72 0,-30.84 -10.18,-55.34 -30.55,-73.52 -20.38,-18.17 -61.4,-30.56 -123.08,-37.17l-84.25 -8.25c-78.19,-8.82 -137.11,-31.94 -176.76,-69.39 -39.65,-37.44 -59.47,-88.65 -59.47,-153.63 0,-75.99 25.6,-135.18 76.82,-177.58 51.21,-42.4 123.62,-63.61 217.24,-63.61 58.37,0 111.51,8.26 159.41,24.78 47.91,16.52 88.38,37.45 121.42,62.78 8.81,5.51 9.91,13.21 3.3,23.13l-56.17 71.03c-6.6,7.71 -14.31,8.81 -23.13,3.3 -25.32,-16.52 -56.99,-31.38 -94.99,-44.6 -37.99,-13.22 -77.37,-19.83 -118.11,-19.83 -49.56,0 -87.01,10.18 -112.33,30.56 -25.33,20.38 -38,46.53 -38,78.47 0,31.94 11.01,56.44 33.04,73.52 22.3,17.07 63.05,28.36 122.79,33.86l82.87 8.26c80.68,7.7 140.7,30.83 179.79,69.38 39.38,38.55 58.92,89.76 58.92,153.63 0,78.19 -27.53,140.97 -82.6,188.33 -55.07,47.36 -134.36,71.03 -237.88,71.03zm845.82 -9.91c-77.09,0 -131.88,-17.9 -164.38,-53.69 -32.48,-35.79 -48.73,-92.79 -48.73,-170.99l0 -452.64c0,-6.61 -3.31,-9.92 -9.92,-9.92l-66.08 0c-11.01,0 -16.52,-5.51 -16.52,-16.52l0 -79.3c0,-11.01 5.51,-16.52 16.52,-16.52l66.08 0c6.61,0 9.92,-3.3 9.92,-9.91l0 -223.02c0,-11.01 5.51,-16.52 16.52,-16.52l105.72 0c11.01,0 16.52,5.51 16.52,16.52l0 223.02c0,6.61 3.31,9.91 9.92,9.91l125.55 0c11.01,0 16.52,5.51 16.52,16.52l0 79.3c0,11.01 -5.51,16.52 -16.52,16.52l-125.55 0c-6.61,0 -9.92,3.31 -9.92,9.92l0 447.68c0,39.64 7.99,66.36 23.95,80.12 15.98,13.76 41.57,20.64 76.83,20.64l34.69 0c11.01,0 16.52,5.51 16.52,16.52l0 95.81c0,11.02 -5.51,16.53 -16.52,16.53l-61.13 0zm384.91 -977.98c-11.01,0 -16.52,-5.51 -16.52,-16.52l0 -120.6c0,-11.01 5.51,-16.52 16.52,-16.52l112.33 0c11.02,0 16.53,5.51 16.53,16.52l0 120.6c0,11.01 -5.51,16.52 -16.53,16.52l-112.33 0zm3.31 969.71c-11.02,0 -16.53,-5.51 -16.53,-16.52l0 -758.27c0,-11.01 5.51,-16.52 16.53,-16.52l105.72 0c11.01,0 16.52,5.51 16.52,16.52l0 758.27c0,11.01 -5.51,16.52 -16.52,16.52l-105.72 0zm424.56 -396.48c0,-44.05 2.21,-82.32 6.61,-114.81 4.41,-32.48 10.47,-60.84 18.17,-85.07 22.03,-69.39 60.57,-122.25 115.64,-158.59 55.07,-36.34 120.6,-54.52 196.58,-54.52 60.57,0 113.71,11.84 159.41,35.52 45.71,23.68 82.88,56.45 111.51,98.3 5.51,8.81 3.85,16.52 -4.95,23.13l-72.69 59.47c-8.82,6.61 -16.52,6.06 -23.13,-1.65 -23.13,-28.63 -47.36,-50.1 -72.69,-64.42 -25.33,-14.31 -57.83,-21.47 -97.47,-21.47 -42.95,0 -79.85,10.18 -110.68,30.56 -30.84,20.37 -52.87,51.48 -66.08,93.33 -6.61,20.93 -11.3,44.06 -14.05,69.38 -2.76,25.33 -4.13,55.62 -4.13,90.86 0,35.24 1.37,65.8 4.13,91.69 2.75,25.88 7.44,49.29 14.05,70.21 13.21,41.85 35.24,72.96 66.08,93.34 30.83,20.37 67.72,30.55 110.68,30.55 39.64,0 72.14,-7.15 97.47,-21.47 25.33,-14.32 49.56,-35.79 72.69,-64.42 6.61,-7.71 14.31,-8.26 23.13,-1.65l72.69 59.47c8.81,6.61 10.46,14.32 4.95,23.13 -28.63,41.85 -65.8,74.62 -111.51,98.3 -45.7,23.68 -98.84,35.52 -159.41,35.52 -75.99,0 -141.52,-18.17 -196.58,-54.52 -55.07,-36.34 -93.61,-89.21 -115.64,-158.59 -7.7,-24.23 -13.76,-52.6 -18.17,-85.08 -4.4,-32.49 -6.61,-71.31 -6.61,-116.47zm1197.7 414.65c-77.09,0 -142.9,-18.72 -197.41,-56.17 -54.52,-37.44 -92.79,-89.76 -114.81,-156.93 -8.82,-27.54 -15.41,-56.45 -19.83,-86.73 -4.4,-30.29 -6.61,-68.55 -6.61,-114.81 0,-46.25 2.21,-84.25 6.61,-113.99 4.41,-29.74 11.01,-58.37 19.83,-85.9 22.02,-68.29 60.3,-120.87 114.81,-157.77 54.52,-36.9 120.32,-55.34 197.41,-55.34 77.09,0 142.9,18.45 197.41,55.34 54.52,36.9 92.78,89.48 114.81,157.77 8.81,27.53 15.41,56.16 19.82,85.9 4.41,29.74 6.61,67.73 6.61,113.99 0,46.26 -2.2,84.53 -6.61,114.81 -4.4,30.29 -11.01,59.19 -19.82,86.73 -22.03,67.17 -60.3,119.49 -114.81,156.93 -54.52,37.45 -120.32,56.17 -197.41,56.17zm0 -128.86c44.05,0 81.49,-10.74 112.33,-32.21 30.84,-21.48 52.86,-52.03 66.08,-91.69 6.61,-22.02 11.29,-44.87 14.05,-68.55 2.75,-23.68 4.13,-54.79 4.13,-93.34 0,-38.54 -1.38,-69.38 -4.13,-92.51 -2.76,-23.13 -7.44,-45.71 -14.05,-67.73 -13.22,-39.64 -35.24,-70.21 -66.08,-91.69 -30.84,-21.47 -68.29,-32.21 -112.33,-32.21 -44.06,0 -81.5,10.74 -112.33,32.21 -30.84,21.48 -52.87,52.04 -66.08,91.69 -6.61,22.02 -11.3,44.61 -14.05,67.73 -2.76,23.13 -4.13,53.96 -4.13,92.51 0,38.55 1.37,69.66 4.13,93.34 2.75,23.68 7.44,46.53 14.05,68.55 13.21,39.65 35.24,70.21 66.08,91.69 30.83,21.47 68.28,32.21 112.33,32.21zm964.76 408.04c-11.01,0 -16.52,-5.51 -16.52,-16.52l0 -95.81c0,-11.01 5.51,-16.52 16.52,-16.52l29.74 0c31.94,0 57.83,-8.54 77.64,-25.61 19.83,-17.07 38.55,-48.18 56.17,-93.33l26.44 -72.69 -290.75 -751.66c-3.3,-11.01 1.1,-16.52 13.22,-16.52l115.64 0c9.91,0 16.52,5.51 19.82,16.52l208.15 571.59 3.31 0 199.89 -571.59c3.3,-11.01 9.91,-16.52 19.82,-16.52l112.33 0c12.11,0 16.53,5.51 13.22,16.52l-312.23 835.91c-17.62,46.25 -34.97,84.8 -52.03,115.63 -17.07,30.84 -35.24,55.07 -54.52,72.69 -19.28,17.62 -40.47,30.01 -63.6,37.17 -23.13,7.16 -49.56,10.74 -79.3,10.74l-42.95 0zm1450.44 -279.18c-38.55,0 -74.34,-3.58 -107.38,-10.74 -33.04,-7.16 -63.06,-16.52 -90.03,-28.09 -26.99,-11.56 -51.22,-24.23 -72.69,-37.99 -21.47,-13.77 -40.47,-27.81 -57,-42.13 -7.7,-7.71 -7.7,-15.42 0,-23.13l67.73 -72.69c7.71,-7.71 15.42,-7.71 23.13,0 29.74,25.33 65.8,46.8 108.21,64.42 42.4,17.62 87.84,26.44 136.29,26.44 58.38,0 101.87,-11.29 130.51,-33.87 28.63,-22.57 42.94,-51.48 42.94,-86.72 0,-30.84 -10.18,-55.34 -30.55,-73.52 -20.38,-18.17 -61.4,-30.56 -123.08,-37.17l-84.25 -8.25c-78.19,-8.82 -137.11,-31.94 -176.76,-69.39 -39.65,-37.44 -59.47,-88.65 -59.47,-153.63 0,-75.99 25.6,-135.18 76.82,-177.58 51.21,-42.4 123.62,-63.61 217.24,-63.61 58.37,0 111.51,8.26 159.41,24.78 47.91,16.52 88.38,37.45 121.42,62.78 8.81,5.51 9.91,13.21 3.3,23.13l-56.17 71.03c-6.6,7.71 -14.31,8.81 -23.13,3.3 -25.32,-16.52 -56.99,-31.38 -94.99,-44.6 -37.99,-13.22 -77.37,-19.83 -118.11,-19.83 -49.56,0 -87.01,10.18 -112.33,30.56 -25.33,20.38 -38,46.53 -38,78.47 0,31.94 11.01,56.44 33.04,73.52 22.3,17.07 63.05,28.36 122.79,33.86l82.87 8.26c80.68,7.7 140.7,30.83 179.79,69.38 39.38,38.55 58.92,89.76 58.92,153.63 0,78.19 -27.53,140.97 -82.6,188.33 -55.07,47.36 -134.36,71.03 -237.88,71.03zm911.9 0c-80.4,0 -147.85,-18.45 -202.37,-55.34 -54.52,-36.9 -92.79,-90.03 -114.81,-159.41 -8.82,-25.33 -15.41,-53.41 -19.83,-84.25 -4.4,-30.84 -6.61,-69.38 -6.61,-115.64 0,-46.25 1.93,-85.08 5.78,-116.46 3.86,-31.39 10.19,-59.19 19,-83.42 22.03,-69.39 60.3,-122.25 114.81,-158.59 54.52,-36.34 119.77,-54.52 195.76,-54.52 76,0 141.25,18.45 195.77,55.34 54.52,36.9 92.78,89.48 114.8,157.77 4.41,13.21 7.99,26.7 10.75,40.47 2.75,13.77 5.23,29.46 7.43,47.08 2.21,17.62 3.86,37.72 4.96,60.3 1.09,22.57 1.65,48.73 1.65,78.47 0,11.01 -6.06,16.52 -18.17,16.52l-500.55 0c-6.61,0 -9.91,3.31 -9.91,9.91 0,22.03 1.09,40.2 3.3,54.52 2.21,14.32 5.51,28.09 9.91,41.3 15.42,46.26 40.2,80.68 74.34,103.25 34.14,22.57 75.99,33.86 125.55,33.86 47.36,0 87.55,-8.25 120.6,-24.77 33.04,-16.53 60.57,-37.45 82.6,-62.78 8.82,-8.81 17.07,-9.91 24.78,-3.3l67.73 61.12c7.7,6.61 8.25,14.32 1.65,23.14 -31.93,39.64 -74.06,72.14 -126.38,97.46 -52.31,25.33 -113.16,38 -182.54,38zm175.11 -484.03c6.61,0 9.91,-3.31 9.91,-9.92 0,-36.06 -3.85,-65.53 -11.56,-88.38 -13.22,-39.37 -35.52,-69.66 -66.91,-91.14 -31.39,-21.2 -69.66,-31.93 -114.81,-31.93 -45.15,0 -83.42,10.74 -114.8,31.93 -31.39,21.48 -53.7,51.77 -66.91,91.14 -7.71,22.85 -11.56,52.32 -11.56,88.38 0,6.61 3.3,9.92 9.91,9.92l366.74 0zm712 781.38c-56.16,0 -109.3,-10.74 -159.41,-32.21 -50.11,-21.48 -88.38,-49.84 -114.81,-85.08 -6.61,-7.71 -6.06,-15.42 1.65,-23.13l67.73 -67.73c7.7,-7.71 15.97,-7.71 24.77,0 27.54,25.33 55.9,44.88 85.08,58.64 29.18,13.77 63.06,20.65 101.6,20.65 66.08,0 115.92,-17.34 149.5,-52.03 33.6,-34.7 50.39,-88.39 50.39,-161.08l0 -92.51 -1.65 0c-18.72,33.04 -45.43,59.47 -80.12,79.3 -34.69,19.82 -81.22,29.74 -139.59,29.74 -67.18,0 -123.35,-16.25 -168.5,-48.73 -45.16,-32.49 -77.64,-80.12 -97.47,-142.9 -9.91,-29.74 -16.79,-60.3 -20.64,-91.69 -3.86,-31.39 -5.78,-70.21 -5.78,-116.47 0,-46.25 1.92,-85.07 5.78,-116.46 3.85,-31.39 10.74,-61.95 20.64,-91.69 19.83,-62.77 52.31,-110.4 97.47,-142.9 45.15,-32.48 101.32,-48.73 168.5,-48.73 58.37,0 104.9,9.92 139.59,29.74 34.7,19.83 61.4,46.26 80.12,79.3l1.65 0 0 -74.34c0,-11.01 5.51,-16.52 16.52,-16.52l105.72 0c11.02,0 16.53,5.51 16.53,16.52l0 740.09c0,113.44 -29.46,200.16 -88.39,260.18 -58.92,60.02 -144.54,90.03 -256.88,90.03zm19 -454.29c85.08,0 141.52,-39.64 169.33,-118.67 6.61,-19.55 11.29,-41.57 14.05,-65.8 2.75,-24.23 4.13,-53.14 4.13,-87.28 0,-34.15 -1.38,-62.78 -4.13,-86.46 -2.76,-23.68 -7.44,-45.98 -14.05,-66.63 -27.81,-77.92 -84.25,-117.01 -169.33,-117.01 -83.98,0 -139.86,39.09 -167.68,117.01 -6.61,20.65 -11.56,43.5 -14.86,68.29 -3.31,24.78 -4.96,52.86 -4.96,84.8 0,62.49 6.61,113.71 19.83,153.08 27.81,79.02 83.7,118.67 167.68,118.67zm1173.73 138.77c-11.01,0 -16.52,-5.51 -16.52,-16.52l0 -74.34 -1.65 0c-20.92,33.04 -49.28,59.47 -85.07,79.3 -35.79,19.83 -79.57,29.74 -131.34,29.74 -87,0 -154.46,-27.25 -202.37,-81.77 -47.91,-54.52 -71.86,-126.93 -71.86,-217.24l0 -493.95c0,-11.01 5.51,-16.52 16.53,-16.52l105.72 0c11.01,0 16.52,5.51 16.52,16.52l0 460.9c0,64.99 14.32,115.09 42.95,150.33 28.63,35.24 72.69,52.86 132.16,52.86 53.96,0 97.19,-17.62 129.68,-52.86 32.49,-35.24 48.73,-82.6 48.73,-142.07l0 -469.17c0,-11.01 5.51,-16.52 16.52,-16.52l105.73 0c11.01,0 16.52,5.51 16.52,16.52l0 758.27c0,11.01 -5.51,16.52 -16.52,16.52l-105.73 0zm485.68 -969.71c-11.01,0 -16.52,-5.51 -16.52,-16.52l0 -120.6c0,-11.01 5.51,-16.52 16.52,-16.52l112.33 0c11.02,0 16.53,5.51 16.53,16.52l0 120.6c0,11.01 -5.51,16.52 -16.53,16.52l-112.33 0zm3.31 969.71c-11.02,0 -16.53,-5.51 -16.53,-16.52l0 -758.27c0,-11.01 5.51,-16.52 16.53,-16.52l105.72 0c11.01,0 16.52,5.51 16.52,16.52l0 758.27c0,11.01 -5.51,16.52 -16.52,16.52l-105.72 0z"/>
    <path class="fil0" d="M21530.37 4816.12c-11.01,0 -16.52,-5.51 -16.52,-16.52l0 -462.56c0,-63.87 -14.59,-113.44 -43.77,-148.68 -29.19,-35.24 -73.52,-52.86 -132.99,-52.86 -52.86,0 -96.37,17.34 -130.5,52.03 -34.15,34.69 -51.22,81.77 -51.22,141.24l0 470.82c0,11.01 -5.51,16.52 -16.52,16.52l-105.72 0c-11.02,0 -16.53,-5.51 -16.53,-16.52l0 -462.56c0,-63.87 -14.59,-113.44 -43.77,-148.68 -29.19,-35.24 -73.52,-52.86 -132.99,-52.86 -53.96,0 -97.75,17.34 -131.33,52.03 -33.6,34.69 -50.39,81.77 -50.39,141.24l0 470.82c0,11.01 -5.51,16.52 -16.52,16.52l-105.72 0c-11.02,0 -16.53,-5.51 -16.53,-16.52l0 -758.27c0,-11.01 5.51,-16.52 16.53,-16.52l105.72 0c11.01,0 16.52,5.51 16.52,16.52l0 72.69 1.65 0c18.72,-30.84 46.8,-56.44 84.25,-76.82 37.45,-20.37 83.15,-30.56 137.11,-30.56 53.96,0 100.49,10.74 139.6,32.22 39.09,21.47 69.66,52.03 91.68,91.69l1.65 0c27.53,-38.55 61.95,-68.84 103.25,-90.86 41.3,-22.03 92.23,-33.04 152.8,-33.04 92.52,0 162.72,26.99 210.63,80.95 47.91,53.96 71.86,126.1 71.86,216.41l0 495.59c0,11.01 -5.51,16.52 -16.52,16.52l-105.73 0zm477.43 -969.71c-11.01,0 -16.52,-5.51 -16.52,-16.52l0 -120.6c0,-11.01 5.51,-16.52 16.52,-16.52l112.33 0c11.02,0 16.53,5.51 16.53,16.52l0 120.6c0,11.01 -5.51,16.52 -16.53,16.52l-112.33 0zm3.31 969.71c-11.02,0 -16.53,-5.51 -16.53,-16.52l0 -758.27c0,-11.01 5.51,-16.52 16.53,-16.52l105.72 0c11.01,0 16.52,5.51 16.52,16.52l0 758.27c0,11.01 -5.51,16.52 -16.52,16.52l-105.72 0zm768.17 18.17c-80.4,0 -147.85,-18.45 -202.37,-55.34 -54.52,-36.9 -92.79,-90.03 -114.81,-159.41 -8.82,-25.33 -15.41,-53.41 -19.83,-84.25 -4.4,-30.84 -6.61,-69.38 -6.61,-115.64 0,-46.25 1.93,-85.08 5.78,-116.46 3.86,-31.39 10.19,-59.19 19,-83.42 22.03,-69.39 60.3,-122.25 114.81,-158.59 54.52,-36.34 119.77,-54.52 195.76,-54.52 76,0 141.25,18.45 195.77,55.34 54.52,36.9 92.78,89.48 114.8,157.77 4.41,13.21 7.99,26.7 10.75,40.47 2.75,13.77 5.23,29.46 7.43,47.08 2.21,17.62 3.86,37.72 4.96,60.3 1.09,22.57 1.65,48.73 1.65,78.47 0,11.01 -6.06,16.52 -18.17,16.52l-500.55 0c-6.61,0 -9.91,3.31 -9.91,9.91 0,22.03 1.09,40.2 3.3,54.52 2.21,14.32 5.51,28.09 9.91,41.3 15.42,46.26 40.2,80.68 74.34,103.25 34.14,22.57 75.99,33.86 125.55,33.86 47.36,0 87.55,-8.25 120.6,-24.77 33.04,-16.53 60.57,-37.45 82.6,-62.78 8.82,-8.81 17.07,-9.91 24.78,-3.3l67.73 61.12c7.7,6.61 8.25,14.32 1.65,23.14 -31.93,39.64 -74.06,72.14 -126.38,97.46 -52.31,25.33 -113.16,38 -182.54,38zm175.11 -484.03c6.61,0 9.91,-3.31 9.91,-9.92 0,-36.06 -3.85,-65.53 -11.56,-88.38 -13.22,-39.37 -35.52,-69.66 -66.91,-91.14 -31.39,-21.2 -69.66,-31.93 -114.81,-31.93 -45.15,0 -83.42,10.74 -114.8,31.93 -31.39,21.48 -53.7,51.77 -66.91,91.14 -7.71,22.85 -11.56,52.32 -11.56,88.38 0,6.61 3.3,9.92 9.91,9.92l366.74 0zm968.07 465.86c-11.02,0 -16.53,-5.51 -16.53,-16.52l0 -462.56c0,-63.87 -14.59,-113.44 -43.77,-148.68 -29.19,-35.24 -73.52,-52.86 -132.99,-52.86 -53.96,0 -97.75,17.34 -131.33,52.03 -33.6,34.69 -50.39,81.77 -50.39,141.24l0 470.82c0,11.01 -5.51,16.52 -16.52,16.52l-105.72 0c-11.02,0 -16.53,-5.51 -16.53,-16.52l0 -758.27c0,-11.01 5.51,-16.52 16.53,-16.52l105.72 0c11.01,0 16.52,5.51 16.52,16.52l0 72.69 1.65 0c18.72,-30.84 46.8,-56.44 84.25,-76.82 37.45,-20.37 83.15,-30.56 137.11,-30.56 85.91,0 153.08,26.99 201.54,80.95 48.46,53.96 72.69,126.1 72.69,216.41l0 495.59c0,11.01 -5.51,16.52 -16.52,16.52l-105.72 0zm693.83 8.26c-77.09,0 -131.88,-17.9 -164.38,-53.69 -32.48,-35.79 -48.73,-92.79 -48.73,-170.99l0 -452.64c0,-6.61 -3.31,-9.92 -9.92,-9.92l-66.08 0c-11.01,0 -16.52,-5.51 -16.52,-16.52l0 -79.3c0,-11.01 5.51,-16.52 16.52,-16.52l66.08 0c6.61,0 9.92,-3.3 9.92,-9.91l0 -223.02c0,-11.01 5.51,-16.52 16.52,-16.52l105.72 0c11.01,0 16.52,5.51 16.52,16.52l0 223.02c0,6.61 3.31,9.91 9.92,9.91l125.55 0c11.01,0 16.52,5.51 16.52,16.52l0 79.3c0,11.01 -5.51,16.52 -16.52,16.52l-125.55 0c-6.61,0 -9.92,3.31 -9.92,9.92l0 447.68c0,39.64 7.99,66.36 23.95,80.12 15.98,13.76 41.57,20.64 76.83,20.64l34.69 0c11.01,0 16.52,5.51 16.52,16.52l0 95.81c0,11.02 -5.51,16.53 -16.52,16.53l-61.13 0zm662.45 9.91c-77.09,0 -142.9,-18.72 -197.41,-56.17 -54.52,-37.44 -92.79,-89.76 -114.81,-156.93 -8.82,-27.54 -15.41,-56.45 -19.83,-86.73 -4.4,-30.29 -6.61,-68.55 -6.61,-114.81 0,-46.25 2.21,-84.25 6.61,-113.99 4.41,-29.74 11.01,-58.37 19.83,-85.9 22.02,-68.29 60.3,-120.87 114.81,-157.77 54.52,-36.9 120.32,-55.34 197.41,-55.34 77.09,0 142.9,18.45 197.41,55.34 54.52,36.9 92.78,89.48 114.81,157.77 8.81,27.53 15.41,56.16 19.82,85.9 4.41,29.74 6.61,67.73 6.61,113.99 0,46.26 -2.2,84.53 -6.61,114.81 -4.4,30.29 -11.01,59.19 -19.82,86.73 -22.03,67.17 -60.3,119.49 -114.81,156.93 -54.52,37.45 -120.32,56.17 -197.41,56.17zm0 -128.86c44.05,0 81.49,-10.74 112.33,-32.21 30.84,-21.48 52.86,-52.03 66.08,-91.69 6.61,-22.02 11.29,-44.87 14.05,-68.55 2.75,-23.68 4.13,-54.79 4.13,-93.34 0,-38.54 -1.38,-69.38 -4.13,-92.51 -2.76,-23.13 -7.44,-45.71 -14.05,-67.73 -13.22,-39.64 -35.24,-70.21 -66.08,-91.69 -30.84,-21.47 -68.29,-32.21 -112.33,-32.21 -44.06,0 -81.5,10.74 -112.33,32.21 -30.84,21.48 -52.87,52.04 -66.08,91.69 -6.61,22.02 -11.3,44.61 -14.05,67.73 -2.76,23.13 -4.13,53.96 -4.13,92.51 0,38.55 1.37,69.66 4.13,93.34 2.75,23.68 7.44,46.53 14.05,68.55 13.21,39.65 35.24,70.21 66.08,91.69 30.83,21.47 68.28,32.21 112.33,32.21zm-24735.23 1735.61c-11.02,0 -16.53,-5.51 -16.53,-16.52l0 -76 -1.65 0c-18.72,31.94 -45.99,58.38 -81.78,79.3 -35.79,20.93 -83.42,31.39 -142.9,31.39 -69.38,0 -127.2,-15.97 -173.46,-47.91 -46.25,-31.94 -79.3,-79.3 -99.11,-142.07 -11.01,-31.94 -18.45,-64.98 -22.31,-99.12 -3.85,-34.14 -5.78,-75.99 -5.78,-125.55 0,-49.55 1.93,-91.14 5.78,-124.72 3.86,-33.59 11.3,-66.36 22.31,-98.29 19.82,-62.78 52.86,-110.14 99.11,-142.08 46.25,-31.93 104.08,-47.91 173.46,-47.91 59.47,0 107.1,10.19 142.9,30.56 35.79,20.38 63.06,46.53 81.78,78.47l1.65 0 0 -406.39c0,-11.01 5.51,-16.52 16.53,-16.52l105.72 0c11.01,0 16.52,5.51 16.52,16.52l0 1090.31c0,11.01 -5.51,16.52 -16.52,16.52l-105.72 0zm-209.8 -110.69c90.31,0 148.68,-40.2 175.1,-120.59 6.61,-18.72 11.29,-41.03 14.05,-66.91 2.76,-25.88 4.13,-58.64 4.13,-98.3 0,-39.64 -1.37,-72.14 -4.13,-97.46 -2.76,-25.33 -7.44,-47.91 -14.05,-67.73 -26.43,-79.3 -84.79,-118.94 -175.1,-118.94 -88.11,0 -145.93,39.64 -173.46,118.94 -6.61,22.02 -11.3,46.25 -14.05,72.69 -2.76,26.43 -4.13,57.26 -4.13,92.51 0,36.34 1.37,67.73 4.13,94.17 2.75,26.43 7.44,50.1 14.05,71.03 27.53,80.39 85.35,120.59 173.46,120.59zm977.98 128.86c-80.4,0 -147.85,-18.45 -202.37,-55.34 -54.52,-36.9 -92.79,-90.03 -114.81,-159.41 -8.82,-25.33 -15.41,-53.41 -19.83,-84.25 -4.4,-30.84 -6.61,-69.38 -6.61,-115.64 0,-46.25 1.93,-85.08 5.78,-116.46 3.86,-31.39 10.19,-59.19 19,-83.42 22.03,-69.39 60.3,-122.25 114.81,-158.59 54.52,-36.34 119.77,-54.52 195.76,-54.52 76,0 141.25,18.45 195.77,55.34 54.52,36.9 92.78,89.48 114.8,157.77 4.41,13.21 7.99,26.7 10.75,40.47 2.75,13.77 5.23,29.46 7.43,47.08 2.21,17.62 3.86,37.72 4.96,60.3 1.09,22.57 1.65,48.73 1.65,78.47 0,11.01 -6.06,16.52 -18.17,16.52l-500.55 0c-6.61,0 -9.91,3.31 -9.91,9.91 0,22.03 1.09,40.2 3.3,54.52 2.21,14.32 5.51,28.09 9.91,41.3 15.42,46.26 40.2,80.68 74.34,103.25 34.14,22.57 75.99,33.86 125.55,33.86 47.36,0 87.55,-8.25 120.6,-24.77 33.04,-16.53 60.57,-37.45 82.6,-62.78 8.82,-8.81 17.07,-9.91 24.78,-3.3l67.73 61.12c7.7,6.61 8.25,14.32 1.65,23.14 -31.93,39.64 -74.06,72.14 -126.38,97.46 -52.31,25.33 -113.16,38 -182.54,38zm175.11 -484.03c6.61,0 9.91,-3.31 9.91,-9.92 0,-36.06 -3.85,-65.53 -11.56,-88.38 -13.22,-39.37 -35.52,-69.66 -66.91,-91.14 -31.39,-21.2 -69.66,-31.93 -114.81,-31.93 -45.15,0 -83.42,10.74 -114.8,31.93 -31.39,21.48 -53.7,51.77 -66.91,91.14 -7.71,22.85 -11.56,52.32 -11.56,88.38 0,6.61 3.3,9.92 9.91,9.92l366.74 0zm644.28 474.12c-69.39,0 -118.95,-16.8 -148.69,-50.39 -29.74,-33.59 -44.6,-86.18 -44.6,-157.77l0 -906.93c0,-11.01 5.51,-16.52 16.52,-16.52l105.72 0c11.02,0 16.53,5.51 16.53,16.52l0 898.68c0,33.04 6.33,55.89 19,68.55 12.66,12.67 32.76,19 60.29,19l31.39 0c11.01,0 16.52,5.51 16.52,16.52l0 95.81c0,11.02 -5.51,16.53 -16.52,16.53l-56.16 0zm959.8 9.91c-80.4,0 -147.85,-18.45 -202.37,-55.34 -54.52,-36.9 -92.79,-90.03 -114.81,-159.41 -8.82,-25.33 -15.41,-53.41 -19.83,-84.25 -4.4,-30.84 -6.61,-69.38 -6.61,-115.64 0,-46.25 1.93,-85.08 5.78,-116.46 3.86,-31.39 10.19,-59.19 19,-83.42 22.03,-69.39 60.3,-122.25 114.81,-158.59 54.52,-36.34 119.77,-54.52 195.76,-54.52 76,0 141.25,18.45 195.77,55.34 54.52,36.9 92.78,89.48 114.8,157.77 4.41,13.21 7.99,26.7 10.75,40.47 2.75,13.77 5.23,29.46 7.43,47.08 2.21,17.62 3.86,37.72 4.96,60.3 1.09,22.57 1.65,48.73 1.65,78.47 0,11.01 -6.06,16.52 -18.17,16.52l-500.55 0c-6.61,0 -9.91,3.31 -9.91,9.91 0,22.03 1.09,40.2 3.3,54.52 2.21,14.32 5.51,28.09 9.91,41.3 15.42,46.26 40.2,80.68 74.34,103.25 34.14,22.57 75.99,33.86 125.55,33.86 47.36,0 87.55,-8.25 120.6,-24.77 33.04,-16.53 60.57,-37.45 82.6,-62.78 8.82,-8.81 17.07,-9.91 24.78,-3.3l67.73 61.12c7.7,6.61 8.25,14.32 1.65,23.14 -31.93,39.64 -74.06,72.14 -126.38,97.46 -52.31,25.33 -113.16,38 -182.54,38zm175.11 -484.03c6.61,0 9.91,-3.31 9.91,-9.92 0,-36.06 -3.85,-65.53 -11.56,-88.38 -13.22,-39.37 -35.52,-69.66 -66.91,-91.14 -31.39,-21.2 -69.66,-31.93 -114.81,-31.93 -45.15,0 -83.42,10.74 -114.8,31.93 -31.39,21.48 -53.7,51.77 -66.91,91.14 -7.71,22.85 -11.56,52.32 -11.56,88.38 0,6.61 3.3,9.92 9.91,9.92l366.74 0zm726.88 484.03c-38.55,0 -74.34,-3.58 -107.38,-10.74 -33.04,-7.16 -63.06,-16.52 -90.03,-28.09 -26.99,-11.56 -51.22,-24.23 -72.69,-37.99 -21.47,-13.77 -40.47,-27.81 -57,-42.13 -7.7,-7.71 -7.7,-15.42 0,-23.13l67.73 -72.69c7.71,-7.71 15.42,-7.71 23.13,0 29.74,25.33 65.8,46.8 108.21,64.42 42.4,17.62 87.84,26.44 136.29,26.44 58.38,0 101.87,-11.29 130.51,-33.87 28.63,-22.57 42.94,-51.48 42.94,-86.72 0,-30.84 -10.18,-55.34 -30.55,-73.52 -20.38,-18.17 -61.4,-30.56 -123.08,-37.17l-84.25 -8.25c-78.19,-8.82 -137.11,-31.94 -176.76,-69.39 -39.65,-37.44 -59.47,-88.65 -59.47,-153.63 0,-75.99 25.6,-135.18 76.82,-177.58 51.21,-42.4 123.62,-63.61 217.24,-63.61 58.37,0 111.51,8.26 159.41,24.78 47.91,16.52 88.38,37.45 121.42,62.78 8.81,5.51 9.91,13.21 3.3,23.13l-56.17 71.03c-6.6,7.71 -14.31,8.81 -23.13,3.3 -25.32,-16.52 -56.99,-31.38 -94.99,-44.6 -37.99,-13.22 -77.37,-19.83 -118.11,-19.83 -49.56,0 -87.01,10.18 -112.33,30.56 -25.33,20.38 -38,46.53 -38,78.47 0,31.94 11.01,56.44 33.04,73.52 22.3,17.07 63.05,28.36 122.79,33.86l82.87 8.26c80.68,7.7 140.7,30.83 179.79,69.38 39.38,38.55 58.92,89.76 58.92,153.63 0,78.19 -27.53,140.97 -82.6,188.33 -55.07,47.36 -134.36,71.03 -237.88,71.03zm845.82 -9.91c-77.09,0 -131.88,-17.9 -164.38,-53.69 -32.48,-35.79 -48.73,-92.79 -48.73,-170.99l0 -452.64c0,-6.61 -3.31,-9.92 -9.92,-9.92l-66.08 0c-11.01,0 -16.52,-5.51 -16.52,-16.52l0 -79.3c0,-11.01 5.51,-16.52 16.52,-16.52l66.08 0c6.61,0 9.92,-3.3 9.92,-9.91l0 -223.02c0,-11.01 5.51,-16.52 16.52,-16.52l105.72 0c11.01,0 16.52,5.51 16.52,16.52l0 223.02c0,6.61 3.31,9.91 9.92,9.91l125.55 0c11.01,0 16.52,5.51 16.52,16.52l0 79.3c0,11.01 -5.51,16.52 -16.52,16.52l-125.55 0c-6.61,0 -9.92,3.31 -9.92,9.92l0 447.68c0,39.64 7.99,66.36 23.95,80.12 15.98,13.76 41.57,20.64 76.83,20.64l34.69 0c11.01,0 16.52,5.51 16.52,16.52l0 95.81c0,11.02 -5.51,16.53 -16.52,16.53l-61.13 0zm850.77 -8.26c-11.01,0 -16.52,-5.51 -16.52,-16.52l0 -69.39 -1.65 0c-18.72,29.74 -47.36,54.52 -85.9,74.34 -38.55,19.83 -88.11,29.74 -148.68,29.74 -37.45,0 -72.41,-4.95 -104.91,-14.87 -32.48,-9.91 -60.57,-25.05 -84.25,-44.87 -23.68,-19.83 -42.4,-44.61 -56.16,-74.62 -13.77,-29.74 -20.65,-64.7 -20.65,-104.34 0,-83.98 27.25,-145.93 81.77,-185.57 54.52,-39.92 130.24,-59.75 227.15,-59.75l180.07 0c6.61,0 9.92,-3.31 9.92,-9.92l0 -57.26c0,-54.79 -13.22,-94.16 -39.65,-118.11 -26.43,-23.95 -76.54,-36.07 -150.33,-36.07 -45.15,0 -82.6,5.23 -112.33,15.69 -29.74,10.46 -56.16,23.95 -79.3,40.47 -9.91,7.71 -17.62,7.16 -23.13,-1.65l-44.6 -76c-4.41,-8.81 -3.31,-16.52 3.3,-23.13 29.74,-23.13 67.18,-41.85 112.33,-56.16 45.16,-14.32 97.47,-21.48 156.94,-21.48 112.33,0 192.18,20.65 239.54,61.95 47.36,41.3 71.03,110.4 71.03,207.32l0 523.68c0,11.01 -5.51,16.52 -16.52,16.52l-97.47 0zm-219.71 -100.77c62.78,0 111.78,-13.49 147.02,-40.47 35.25,-26.99 52.87,-65.25 52.87,-114.81l0 -87.56c0,-6.6 -3.31,-9.91 -9.92,-9.91l-158.59 0c-69.39,0 -119.49,10.18 -150.33,30.56 -30.84,20.38 -46.25,53.14 -46.25,98.3 0,40.75 14.31,71.59 42.94,92.51 28.64,20.93 69.39,31.39 122.25,31.39zm1172.92 100.77c-11.02,0 -16.53,-5.51 -16.53,-16.52l0 -76 -1.65 0c-18.72,31.94 -45.99,58.38 -81.78,79.3 -35.79,20.93 -83.42,31.39 -142.9,31.39 -69.38,0 -127.2,-15.97 -173.46,-47.91 -46.25,-31.94 -79.3,-79.3 -99.11,-142.07 -11.01,-31.94 -18.45,-64.98 -22.31,-99.12 -3.85,-34.14 -5.78,-75.99 -5.78,-125.55 0,-49.55 1.93,-91.14 5.78,-124.72 3.86,-33.59 11.3,-66.36 22.31,-98.29 19.82,-62.78 52.86,-110.14 99.11,-142.08 46.25,-31.93 104.08,-47.91 173.46,-47.91 59.47,0 107.1,10.19 142.9,30.56 35.79,20.38 63.06,46.53 81.78,78.47l1.65 0 0 -406.39c0,-11.01 5.51,-16.52 16.53,-16.52l105.72 0c11.01,0 16.52,5.51 16.52,16.52l0 1090.31c0,11.01 -5.51,16.52 -16.52,16.52l-105.72 0zm-209.8 -110.69c90.31,0 148.68,-40.2 175.1,-120.59 6.61,-18.72 11.29,-41.03 14.05,-66.91 2.76,-25.88 4.13,-58.64 4.13,-98.3 0,-39.64 -1.37,-72.14 -4.13,-97.46 -2.76,-25.33 -7.44,-47.91 -14.05,-67.73 -26.43,-79.3 -84.79,-118.94 -175.1,-118.94 -88.11,0 -145.93,39.64 -173.46,118.94 -6.61,22.02 -11.3,46.25 -14.05,72.69 -2.76,26.43 -4.13,57.26 -4.13,92.51 0,36.34 1.37,67.73 4.13,94.17 2.75,26.43 7.44,50.1 14.05,71.03 27.53,80.39 85.35,120.59 173.46,120.59zm973.02 128.86c-77.09,0 -142.9,-18.72 -197.41,-56.17 -54.52,-37.44 -92.79,-89.76 -114.81,-156.93 -8.82,-27.54 -15.41,-56.45 -19.83,-86.73 -4.4,-30.29 -6.61,-68.55 -6.61,-114.81 0,-46.25 2.21,-84.25 6.61,-113.99 4.41,-29.74 11.01,-58.37 19.83,-85.9 22.02,-68.29 60.3,-120.87 114.81,-157.77 54.52,-36.9 120.32,-55.34 197.41,-55.34 77.09,0 142.9,18.45 197.41,55.34 54.52,36.9 92.78,89.48 114.81,157.77 8.81,27.53 15.41,56.16 19.82,85.9 4.41,29.74 6.61,67.73 6.61,113.99 0,46.26 -2.2,84.53 -6.61,114.81 -4.4,30.29 -11.01,59.19 -19.82,86.73 -22.03,67.17 -60.3,119.49 -114.81,156.93 -54.52,37.45 -120.32,56.17 -197.41,56.17zm0 -128.86c44.05,0 81.49,-10.74 112.33,-32.21 30.84,-21.48 52.86,-52.03 66.08,-91.69 6.61,-22.02 11.29,-44.87 14.05,-68.55 2.75,-23.68 4.13,-54.79 4.13,-93.34 0,-38.54 -1.38,-69.38 -4.13,-92.51 -2.76,-23.13 -7.44,-45.71 -14.05,-67.73 -13.22,-39.64 -35.24,-70.21 -66.08,-91.69 -30.84,-21.47 -68.29,-32.21 -112.33,-32.21 -44.06,0 -81.5,10.74 -112.33,32.21 -30.84,21.48 -52.87,52.04 -66.08,91.69 -6.61,22.02 -11.3,44.61 -14.05,67.73 -2.76,23.13 -4.13,53.96 -4.13,92.51 0,38.55 1.37,69.66 4.13,93.34 2.75,23.68 7.44,46.53 14.05,68.55 13.21,39.65 35.24,70.21 66.08,91.69 30.83,21.47 68.28,32.21 112.33,32.21zm1453.75 110.69c-11.02,0 -16.53,-5.51 -16.53,-16.52l0 -76 -1.65 0c-18.72,31.94 -45.99,58.38 -81.78,79.3 -35.79,20.93 -83.42,31.39 -142.9,31.39 -69.38,0 -127.2,-15.97 -173.46,-47.91 -46.25,-31.94 -79.3,-79.3 -99.11,-142.07 -11.01,-31.94 -18.45,-64.98 -22.31,-99.12 -3.85,-34.14 -5.78,-75.99 -5.78,-125.55 0,-49.55 1.93,-91.14 5.78,-124.72 3.86,-33.59 11.3,-66.36 22.31,-98.29 19.82,-62.78 52.86,-110.14 99.11,-142.08 46.25,-31.93 104.08,-47.91 173.46,-47.91 59.47,0 107.1,10.19 142.9,30.56 35.79,20.38 63.06,46.53 81.78,78.47l1.65 0 0 -406.39c0,-11.01 5.51,-16.52 16.53,-16.52l105.72 0c11.01,0 16.52,5.51 16.52,16.52l0 1090.31c0,11.01 -5.51,16.52 -16.52,16.52l-105.72 0zm-209.8 -110.69c90.31,0 148.68,-40.2 175.1,-120.59 6.61,-18.72 11.29,-41.03 14.05,-66.91 2.76,-25.88 4.13,-58.64 4.13,-98.3 0,-39.64 -1.37,-72.14 -4.13,-97.46 -2.76,-25.33 -7.44,-47.91 -14.05,-67.73 -26.43,-79.3 -84.79,-118.94 -175.1,-118.94 -88.11,0 -145.93,39.64 -173.46,118.94 -6.61,22.02 -11.3,46.25 -14.05,72.69 -2.76,26.43 -4.13,57.26 -4.13,92.51 0,36.34 1.37,67.73 4.13,94.17 2.75,26.43 7.44,50.1 14.05,71.03 27.53,80.39 85.35,120.59 173.46,120.59zm977.98 128.86c-80.4,0 -147.85,-18.45 -202.37,-55.34 -54.52,-36.9 -92.79,-90.03 -114.81,-159.41 -8.82,-25.33 -15.41,-53.41 -19.83,-84.25 -4.4,-30.84 -6.61,-69.38 -6.61,-115.64 0,-46.25 1.93,-85.08 5.78,-116.46 3.86,-31.39 10.19,-59.19 19,-83.42 22.03,-69.39 60.3,-122.25 114.81,-158.59 54.52,-36.34 119.77,-54.52 195.76,-54.52 76,0 141.25,18.45 195.77,55.34 54.52,36.9 92.78,89.48 114.8,157.77 4.41,13.21 7.99,26.7 10.75,40.47 2.75,13.77 5.23,29.46 7.43,47.08 2.21,17.62 3.86,37.72 4.96,60.3 1.09,22.57 1.65,48.73 1.65,78.47 0,11.01 -6.06,16.52 -18.17,16.52l-500.55 0c-6.61,0 -9.91,3.31 -9.91,9.91 0,22.03 1.09,40.2 3.3,54.52 2.21,14.32 5.51,28.09 9.91,41.3 15.42,46.26 40.2,80.68 74.34,103.25 34.14,22.57 75.99,33.86 125.55,33.86 47.36,0 87.55,-8.25 120.6,-24.77 33.04,-16.53 60.57,-37.45 82.6,-62.78 8.82,-8.81 17.07,-9.91 24.78,-3.3l67.73 61.12c7.7,6.61 8.25,14.32 1.65,23.14 -31.93,39.64 -74.06,72.14 -126.38,97.46 -52.31,25.33 -113.16,38 -182.54,38zm175.11 -484.03c6.61,0 9.91,-3.31 9.91,-9.92 0,-36.06 -3.85,-65.53 -11.56,-88.38 -13.22,-39.37 -35.52,-69.66 -66.91,-91.14 -31.39,-21.2 -69.66,-31.93 -114.81,-31.93 -45.15,0 -83.42,10.74 -114.8,31.93 -31.39,21.48 -53.7,51.77 -66.91,91.14 -7.71,22.85 -11.56,52.32 -11.56,88.38 0,6.61 3.3,9.92 9.91,9.92l366.74 0zm1044.06 484.03c-38.55,0 -74.34,-3.58 -107.38,-10.74 -33.04,-7.16 -63.06,-16.52 -90.03,-28.09 -26.99,-11.56 -51.22,-24.23 -72.69,-37.99 -21.47,-13.77 -40.47,-27.81 -57,-42.13 -7.7,-7.71 -7.7,-15.42 0,-23.13l67.73 -72.69c7.71,-7.71 15.42,-7.71 23.13,0 29.74,25.33 65.8,46.8 108.21,64.42 42.4,17.62 87.84,26.44 136.29,26.44 58.38,0 101.87,-11.29 130.51,-33.87 28.63,-22.57 42.94,-51.48 42.94,-86.72 0,-30.84 -10.18,-55.34 -30.55,-73.52 -20.38,-18.17 -61.4,-30.56 -123.08,-37.17l-84.25 -8.25c-78.19,-8.82 -137.11,-31.94 -176.76,-69.39 -39.65,-37.44 -59.47,-88.65 -59.47,-153.63 0,-75.99 25.6,-135.18 76.82,-177.58 51.21,-42.4 123.62,-63.61 217.24,-63.61 58.37,0 111.51,8.26 159.41,24.78 47.91,16.52 88.38,37.45 121.42,62.78 8.81,5.51 9.91,13.21 3.3,23.13l-56.17 71.03c-6.6,7.71 -14.31,8.81 -23.13,3.3 -25.32,-16.52 -56.99,-31.38 -94.99,-44.6 -37.99,-13.22 -77.37,-19.83 -118.11,-19.83 -49.56,0 -87.01,10.18 -112.33,30.56 -25.33,20.38 -38,46.53 -38,78.47 0,31.94 11.01,56.44 33.04,73.52 22.3,17.07 63.05,28.36 122.79,33.86l82.87 8.26c80.68,7.7 140.7,30.83 179.79,69.38 39.38,38.55 58.92,89.76 58.92,153.63 0,78.19 -27.53,140.97 -82.6,188.33 -55.07,47.36 -134.36,71.03 -237.88,71.03zm1095.26 -18.17c-11.01,0 -16.52,-5.51 -16.52,-16.52l0 -69.39 -1.65 0c-18.72,29.74 -47.36,54.52 -85.9,74.34 -38.55,19.83 -88.11,29.74 -148.68,29.74 -37.45,0 -72.41,-4.95 -104.91,-14.87 -32.48,-9.91 -60.57,-25.05 -84.25,-44.87 -23.68,-19.83 -42.4,-44.61 -56.16,-74.62 -13.77,-29.74 -20.65,-64.7 -20.65,-104.34 0,-83.98 27.25,-145.93 81.77,-185.57 54.52,-39.92 130.24,-59.75 227.15,-59.75l180.07 0c6.61,0 9.92,-3.31 9.92,-9.92l0 -57.26c0,-54.79 -13.22,-94.16 -39.65,-118.11 -26.43,-23.95 -76.54,-36.07 -150.33,-36.07 -45.15,0 -82.6,5.23 -112.33,15.69 -29.74,10.46 -56.16,23.95 -79.3,40.47 -9.91,7.71 -17.62,7.16 -23.13,-1.65l-44.6 -76c-4.41,-8.81 -3.31,-16.52 3.3,-23.13 29.74,-23.13 67.18,-41.85 112.33,-56.16 45.16,-14.32 97.47,-21.48 156.94,-21.48 112.33,0 192.18,20.65 239.54,61.95 47.36,41.3 71.03,110.4 71.03,207.32l0 523.68c0,11.01 -5.51,16.52 -16.52,16.52l-97.47 0zm-219.71 -100.77c62.78,0 111.78,-13.49 147.02,-40.47 35.25,-26.99 52.87,-65.25 52.87,-114.81l0 -87.56c0,-6.6 -3.31,-9.91 -9.92,-9.91l-158.59 0c-69.39,0 -119.49,10.18 -150.33,30.56 -30.84,20.38 -46.25,53.14 -46.25,98.3 0,40.75 14.31,71.59 42.94,92.51 28.64,20.93 69.39,31.39 122.25,31.39zm867.3 109.03c-69.39,0 -118.95,-16.8 -148.69,-50.39 -29.74,-33.59 -44.6,-86.18 -44.6,-157.77l0 -906.93c0,-11.01 5.51,-16.52 16.52,-16.52l105.72 0c11.02,0 16.53,5.51 16.53,16.52l0 898.68c0,33.04 6.33,55.89 19,68.55 12.66,12.67 32.76,19 60.29,19l31.39 0c11.01,0 16.52,5.51 16.52,16.52l0 95.81c0,11.02 -5.51,16.53 -16.52,16.53l-56.16 0z"/>
    <path class="fil0" d="M13433.98 6441.04c-11.01,0 -16.52,-5.51 -16.52,-16.52l0 -74.34 -1.65 0c-20.92,33.04 -49.28,59.47 -85.07,79.3 -35.79,19.83 -79.57,29.74 -131.34,29.74 -87,0 -154.46,-27.25 -202.37,-81.77 -47.91,-54.52 -71.86,-126.93 -71.86,-217.24l0 -493.95c0,-11.01 5.51,-16.52 16.53,-16.52l105.72 0c11.01,0 16.52,5.51 16.52,16.52l0 460.9c0,64.99 14.32,115.09 42.95,150.33 28.63,35.24 72.69,52.86 132.16,52.86 53.96,0 97.19,-17.62 129.68,-52.86 32.49,-35.24 48.73,-82.6 48.73,-142.07l0 -469.17c0,-11.01 5.51,-16.52 16.52,-16.52l105.73 0c11.01,0 16.52,5.51 16.52,16.52l0 758.27c0,11.01 -5.51,16.52 -16.52,16.52l-105.73 0zm968.07 0c-11.02,0 -16.53,-5.51 -16.53,-16.52l0 -76 -1.65 0c-18.72,31.94 -45.99,58.38 -81.78,79.3 -35.79,20.93 -83.42,31.39 -142.9,31.39 -69.38,0 -127.2,-15.97 -173.46,-47.91 -46.25,-31.94 -79.3,-79.3 -99.11,-142.07 -11.01,-31.94 -18.45,-64.98 -22.31,-99.12 -3.85,-34.14 -5.78,-75.99 -5.78,-125.55 0,-49.55 1.93,-91.14 5.78,-124.72 3.86,-33.59 11.3,-66.36 22.31,-98.29 19.82,-62.78 52.86,-110.14 99.11,-142.08 46.25,-31.93 104.08,-47.91 173.46,-47.91 59.47,0 107.1,10.19 142.9,30.56 35.79,20.38 63.06,46.53 81.78,78.47l1.65 0 0 -406.39c0,-11.01 5.51,-16.52 16.53,-16.52l105.72 0c11.01,0 16.52,5.51 16.52,16.52l0 1090.31c0,11.01 -5.51,16.52 -16.52,16.52l-105.72 0zm-209.8 -110.69c90.31,0 148.68,-40.2 175.1,-120.59 6.61,-18.72 11.29,-41.03 14.05,-66.91 2.76,-25.88 4.13,-58.64 4.13,-98.3 0,-39.64 -1.37,-72.14 -4.13,-97.46 -2.76,-25.33 -7.44,-47.91 -14.05,-67.73 -26.43,-79.3 -84.79,-118.94 -175.1,-118.94 -88.11,0 -145.93,39.64 -173.46,118.94 -6.61,22.02 -11.3,46.25 -14.05,72.69 -2.76,26.43 -4.13,57.26 -4.13,92.51 0,36.34 1.37,67.73 4.13,94.17 2.75,26.43 7.44,50.1 14.05,71.03 27.53,80.39 85.35,120.59 173.46,120.59zm1495.05 110.69c-11.02,0 -16.53,-5.51 -16.53,-16.52l0 -76 -1.65 0c-18.72,31.94 -45.99,58.38 -81.78,79.3 -35.79,20.93 -83.42,31.39 -142.9,31.39 -69.38,0 -127.2,-15.97 -173.46,-47.91 -46.25,-31.94 -79.3,-79.3 -99.11,-142.07 -11.01,-31.94 -18.45,-64.98 -22.31,-99.12 -3.85,-34.14 -5.78,-75.99 -5.78,-125.55 0,-49.55 1.93,-91.14 5.78,-124.72 3.86,-33.59 11.3,-66.36 22.31,-98.29 19.82,-62.78 52.86,-110.14 99.11,-142.08 46.25,-31.93 104.08,-47.91 173.46,-47.91 59.47,0 107.1,10.19 142.9,30.56 35.79,20.38 63.06,46.53 81.78,78.47l1.65 0 0 -406.39c0,-11.01 5.51,-16.52 16.53,-16.52l105.72 0c11.01,0 16.52,5.51 16.52,16.52l0 1090.31c0,11.01 -5.51,16.52 -16.52,16.52l-105.72 0zm-209.8 -110.69c90.31,0 148.68,-40.2 175.1,-120.59 6.61,-18.72 11.29,-41.03 14.05,-66.91 2.76,-25.88 4.13,-58.64 4.13,-98.3 0,-39.64 -1.37,-72.14 -4.13,-97.46 -2.76,-25.33 -7.44,-47.91 -14.05,-67.73 -26.43,-79.3 -84.79,-118.94 -175.1,-118.94 -88.11,0 -145.93,39.64 -173.46,118.94 -6.61,22.02 -11.3,46.25 -14.05,72.69 -2.76,26.43 -4.13,57.26 -4.13,92.51 0,36.34 1.37,67.73 4.13,94.17 2.75,26.43 7.44,50.1 14.05,71.03 27.53,80.39 85.35,120.59 173.46,120.59zm977.98 128.86c-80.4,0 -147.85,-18.45 -202.37,-55.34 -54.52,-36.9 -92.79,-90.03 -114.81,-159.41 -8.82,-25.33 -15.41,-53.41 -19.83,-84.25 -4.4,-30.84 -6.61,-69.38 -6.61,-115.64 0,-46.25 1.93,-85.08 5.78,-116.46 3.86,-31.39 10.19,-59.19 19,-83.42 22.03,-69.39 60.3,-122.25 114.81,-158.59 54.52,-36.34 119.77,-54.52 195.76,-54.52 76,0 141.25,18.45 195.77,55.34 54.52,36.9 92.78,89.48 114.8,157.77 4.41,13.21 7.99,26.7 10.75,40.47 2.75,13.77 5.23,29.46 7.43,47.08 2.21,17.62 3.86,37.72 4.96,60.3 1.09,22.57 1.65,48.73 1.65,78.47 0,11.01 -6.06,16.52 -18.17,16.52l-500.55 0c-6.61,0 -9.91,3.31 -9.91,9.91 0,22.03 1.09,40.2 3.3,54.52 2.21,14.32 5.51,28.09 9.91,41.3 15.42,46.26 40.2,80.68 74.34,103.25 34.14,22.57 75.99,33.86 125.55,33.86 47.36,0 87.55,-8.25 120.6,-24.77 33.04,-16.53 60.57,-37.45 82.6,-62.78 8.82,-8.81 17.07,-9.91 24.78,-3.3l67.73 61.12c7.7,6.61 8.25,14.32 1.65,23.14 -31.93,39.64 -74.06,72.14 -126.38,97.46 -52.31,25.33 -113.16,38 -182.54,38zm175.11 -484.03c6.61,0 9.91,-3.31 9.91,-9.92 0,-36.06 -3.85,-65.53 -11.56,-88.38 -13.22,-39.37 -35.52,-69.66 -66.91,-91.14 -31.39,-21.2 -69.66,-31.93 -114.81,-31.93 -45.15,0 -83.42,10.74 -114.8,31.93 -31.39,21.48 -53.7,51.77 -66.91,91.14 -7.71,22.85 -11.56,52.32 -11.56,88.38 0,6.61 3.3,9.92 9.91,9.92l366.74 0zm1001.1 474.12c-77.09,0 -131.88,-17.9 -164.38,-53.69 -32.48,-35.79 -48.73,-92.79 -48.73,-170.99l0 -452.64c0,-6.61 -3.31,-9.92 -9.92,-9.92l-66.08 0c-11.01,0 -16.52,-5.51 -16.52,-16.52l0 -79.3c0,-11.01 5.51,-16.52 16.52,-16.52l66.08 0c6.61,0 9.92,-3.3 9.92,-9.91l0 -223.02c0,-11.01 5.51,-16.52 16.52,-16.52l105.72 0c11.01,0 16.52,5.51 16.52,16.52l0 223.02c0,6.61 3.31,9.91 9.92,9.91l125.55 0c11.01,0 16.52,5.51 16.52,16.52l0 79.3c0,11.01 -5.51,16.52 -16.52,16.52l-125.55 0c-6.61,0 -9.92,3.31 -9.92,9.92l0 447.68c0,39.64 7.99,66.36 23.95,80.12 15.98,13.76 41.57,20.64 76.83,20.64l34.69 0c11.01,0 16.52,5.51 16.52,16.52l0 95.81c0,11.02 -5.51,16.53 -16.52,16.53l-61.13 0zm868.94 -8.26c-11.01,0 -16.52,-5.51 -16.52,-16.52l0 -74.34 -1.65 0c-20.92,33.04 -49.28,59.47 -85.07,79.3 -35.79,19.83 -79.57,29.74 -131.34,29.74 -87,0 -154.46,-27.25 -202.37,-81.77 -47.91,-54.52 -71.86,-126.93 -71.86,-217.24l0 -493.95c0,-11.01 5.51,-16.52 16.53,-16.52l105.72 0c11.01,0 16.52,5.51 16.52,16.52l0 460.9c0,64.99 14.32,115.09 42.95,150.33 28.63,35.24 72.69,52.86 132.16,52.86 53.96,0 97.19,-17.62 129.68,-52.86 32.49,-35.24 48.73,-82.6 48.73,-142.07l0 -469.17c0,-11.01 5.51,-16.52 16.52,-16.52l105.73 0c11.01,0 16.52,5.51 16.52,16.52l0 758.27c0,11.01 -5.51,16.52 -16.52,16.52l-105.73 0zm1800.66 0c-11.01,0 -16.52,-5.51 -16.52,-16.52l0 -462.56c0,-63.87 -14.59,-113.44 -43.77,-148.68 -29.19,-35.24 -73.52,-52.86 -132.99,-52.86 -52.86,0 -96.37,17.34 -130.5,52.03 -34.15,34.69 -51.22,81.77 -51.22,141.24l0 470.82c0,11.01 -5.51,16.52 -16.52,16.52l-105.72 0c-11.02,0 -16.53,-5.51 -16.53,-16.52l0 -462.56c0,-63.87 -14.59,-113.44 -43.77,-148.68 -29.19,-35.24 -73.52,-52.86 -132.99,-52.86 -53.96,0 -97.75,17.34 -131.33,52.03 -33.6,34.69 -50.39,81.77 -50.39,141.24l0 470.82c0,11.01 -5.51,16.52 -16.52,16.52l-105.72 0c-11.02,0 -16.53,-5.51 -16.53,-16.52l0 -758.27c0,-11.01 5.51,-16.52 16.53,-16.52l105.72 0c11.01,0 16.52,5.51 16.52,16.52l0 72.69 1.65 0c18.72,-30.84 46.8,-56.44 84.25,-76.82 37.45,-20.37 83.15,-30.56 137.11,-30.56 53.96,0 100.49,10.74 139.6,32.22 39.09,21.47 69.66,52.03 91.68,91.69l1.65 0c27.53,-38.55 61.95,-68.84 103.25,-90.86 41.3,-22.03 92.23,-33.04 152.8,-33.04 92.52,0 162.72,26.99 210.63,80.95 47.91,53.96 71.86,126.1 71.86,216.41l0 495.59c0,11.01 -5.51,16.52 -16.52,16.52l-105.73 0zm943.29 0c-11.01,0 -16.52,-5.51 -16.52,-16.52l0 -69.39 -1.65 0c-18.72,29.74 -47.36,54.52 -85.9,74.34 -38.55,19.83 -88.11,29.74 -148.68,29.74 -37.45,0 -72.41,-4.95 -104.91,-14.87 -32.48,-9.91 -60.57,-25.05 -84.25,-44.87 -23.68,-19.83 -42.4,-44.61 -56.16,-74.62 -13.77,-29.74 -20.65,-64.7 -20.65,-104.34 0,-83.98 27.25,-145.93 81.77,-185.57 54.52,-39.92 130.24,-59.75 227.15,-59.75l180.07 0c6.61,0 9.92,-3.31 9.92,-9.92l0 -57.26c0,-54.79 -13.22,-94.16 -39.65,-118.11 -26.43,-23.95 -76.54,-36.07 -150.33,-36.07 -45.15,0 -82.6,5.23 -112.33,15.69 -29.74,10.46 -56.16,23.95 -79.3,40.47 -9.91,7.71 -17.62,7.16 -23.13,-1.65l-44.6 -76c-4.41,-8.81 -3.31,-16.52 3.3,-23.13 29.74,-23.13 67.18,-41.85 112.33,-56.16 45.16,-14.32 97.47,-21.48 156.94,-21.48 112.33,0 192.18,20.65 239.54,61.95 47.36,41.3 71.03,110.4 71.03,207.32l0 523.68c0,11.01 -5.51,16.52 -16.52,16.52l-97.47 0zm-219.71 -100.77c62.78,0 111.78,-13.49 147.02,-40.47 35.25,-26.99 52.87,-65.25 52.87,-114.81l0 -87.56c0,-6.6 -3.31,-9.91 -9.92,-9.91l-158.59 0c-69.39,0 -119.49,10.18 -150.33,30.56 -30.84,20.38 -46.25,53.14 -46.25,98.3 0,40.75 14.31,71.59 42.94,92.51 28.64,20.93 69.39,31.39 122.25,31.39zm949.9 118.94c-38.55,0 -74.34,-3.58 -107.38,-10.74 -33.04,-7.16 -63.06,-16.52 -90.03,-28.09 -26.99,-11.56 -51.22,-24.23 -72.69,-37.99 -21.47,-13.77 -40.47,-27.81 -57,-42.13 -7.7,-7.71 -7.7,-15.42 0,-23.13l67.73 -72.69c7.71,-7.71 15.42,-7.71 23.13,0 29.74,25.33 65.8,46.8 108.21,64.42 42.4,17.62 87.84,26.44 136.29,26.44 58.38,0 101.87,-11.29 130.51,-33.87 28.63,-22.57 42.94,-51.48 42.94,-86.72 0,-30.84 -10.18,-55.34 -30.55,-73.52 -20.38,-18.17 -61.4,-30.56 -123.08,-37.17l-84.25 -8.25c-78.19,-8.82 -137.11,-31.94 -176.76,-69.39 -39.65,-37.44 -59.47,-88.65 -59.47,-153.63 0,-75.99 25.6,-135.18 76.82,-177.58 51.21,-42.4 123.62,-63.61 217.24,-63.61 58.37,0 111.51,8.26 159.41,24.78 47.91,16.52 88.38,37.45 121.42,62.78 8.81,5.51 9.91,13.21 3.3,23.13l-56.17 71.03c-6.6,7.71 -14.31,8.81 -23.13,3.3 -25.32,-16.52 -56.99,-31.38 -94.99,-44.6 -37.99,-13.22 -77.37,-19.83 -118.11,-19.83 -49.56,0 -87.01,10.18 -112.33,30.56 -25.33,20.38 -38,46.53 -38,78.47 0,31.94 11.01,56.44 33.04,73.52 22.3,17.07 63.05,28.36 122.79,33.86l82.87 8.26c80.68,7.7 140.7,30.83 179.79,69.38 39.38,38.55 58.92,89.76 58.92,153.63 0,78.19 -27.53,140.97 -82.6,188.33 -55.07,47.36 -134.36,71.03 -237.88,71.03zm568.28 -414.65c0,-44.05 2.21,-82.32 6.61,-114.81 4.41,-32.48 10.47,-60.84 18.17,-85.07 22.03,-69.39 60.57,-122.25 115.64,-158.59 55.07,-36.34 120.6,-54.52 196.58,-54.52 60.57,0 113.71,11.84 159.41,35.52 45.71,23.68 82.88,56.45 111.51,98.3 5.51,8.81 3.85,16.52 -4.95,23.13l-72.69 59.47c-8.82,6.61 -16.52,6.06 -23.13,-1.65 -23.13,-28.63 -47.36,-50.1 -72.69,-64.42 -25.33,-14.31 -57.83,-21.47 -97.47,-21.47 -42.95,0 -79.85,10.18 -110.68,30.56 -30.84,20.37 -52.87,51.48 -66.08,93.33 -6.61,20.93 -11.3,44.06 -14.05,69.38 -2.76,25.33 -4.13,55.62 -4.13,90.86 0,35.24 1.37,65.8 4.13,91.69 2.75,25.88 7.44,49.29 14.05,70.21 13.21,41.85 35.24,72.96 66.08,93.34 30.83,20.37 67.72,30.55 110.68,30.55 39.64,0 72.14,-7.15 97.47,-21.47 25.33,-14.32 49.56,-35.79 72.69,-64.42 6.61,-7.71 14.31,-8.26 23.13,-1.65l72.69 59.47c8.81,6.61 10.46,14.32 4.95,23.13 -28.63,41.85 -65.8,74.62 -111.51,98.3 -45.7,23.68 -98.84,35.52 -159.41,35.52 -75.99,0 -141.52,-18.17 -196.58,-54.52 -55.07,-36.34 -93.61,-89.21 -115.64,-158.59 -7.7,-24.23 -13.76,-52.6 -18.17,-85.08 -4.4,-32.49 -6.61,-71.31 -6.61,-116.47zm1197.7 414.65c-77.09,0 -142.9,-18.72 -197.41,-56.17 -54.52,-37.44 -92.79,-89.76 -114.81,-156.93 -8.82,-27.54 -15.41,-56.45 -19.83,-86.73 -4.4,-30.29 -6.61,-68.55 -6.61,-114.81 0,-46.25 2.21,-84.25 6.61,-113.99 4.41,-29.74 11.01,-58.37 19.83,-85.9 22.02,-68.29 60.3,-120.87 114.81,-157.77 54.52,-36.9 120.32,-55.34 197.41,-55.34 77.09,0 142.9,18.45 197.41,55.34 54.52,36.9 92.78,89.48 114.81,157.77 8.81,27.53 15.41,56.16 19.82,85.9 4.41,29.74 6.61,67.73 6.61,113.99 0,46.26 -2.2,84.53 -6.61,114.81 -4.4,30.29 -11.01,59.19 -19.82,86.73 -22.03,67.17 -60.3,119.49 -114.81,156.93 -54.52,37.45 -120.32,56.17 -197.41,56.17zm0 -128.86c44.05,0 81.49,-10.74 112.33,-32.21 30.84,-21.48 52.86,-52.03 66.08,-91.69 6.61,-22.02 11.29,-44.87 14.05,-68.55 2.75,-23.68 4.13,-54.79 4.13,-93.34 0,-38.54 -1.38,-69.38 -4.13,-92.51 -2.76,-23.13 -7.44,-45.71 -14.05,-67.73 -13.22,-39.64 -35.24,-70.21 -66.08,-91.69 -30.84,-21.47 -68.29,-32.21 -112.33,-32.21 -44.06,0 -81.5,10.74 -112.33,32.21 -30.84,21.48 -52.87,52.04 -66.08,91.69 -6.61,22.02 -11.3,44.61 -14.05,67.73 -2.76,23.13 -4.13,53.96 -4.13,92.51 0,38.55 1.37,69.66 4.13,93.34 2.75,23.68 7.44,46.53 14.05,68.55 13.21,39.65 35.24,70.21 66.08,91.69 30.83,21.47 68.28,32.21 112.33,32.21zm870.6 118.95c-77.09,0 -131.88,-17.9 -164.38,-53.69 -32.48,-35.79 -48.73,-92.79 -48.73,-170.99l0 -452.64c0,-6.61 -3.31,-9.92 -9.92,-9.92l-66.08 0c-11.01,0 -16.52,-5.51 -16.52,-16.52l0 -79.3c0,-11.01 5.51,-16.52 16.52,-16.52l66.08 0c6.61,0 9.92,-3.3 9.92,-9.91l0 -223.02c0,-11.01 5.51,-16.52 16.52,-16.52l105.72 0c11.01,0 16.52,5.51 16.52,16.52l0 223.02c0,6.61 3.31,9.91 9.92,9.91l125.55 0c11.01,0 16.52,5.51 16.52,16.52l0 79.3c0,11.01 -5.51,16.52 -16.52,16.52l-125.55 0c-6.61,0 -9.92,3.31 -9.92,9.92l0 447.68c0,39.64 7.99,66.36 23.95,80.12 15.98,13.76 41.57,20.64 76.83,20.64l34.69 0c11.01,0 16.52,5.51 16.52,16.52l0 95.81c0,11.02 -5.51,16.53 -16.52,16.53l-61.13 0zm850.77 -8.26c-11.01,0 -16.52,-5.51 -16.52,-16.52l0 -69.39 -1.65 0c-18.72,29.74 -47.36,54.52 -85.9,74.34 -38.55,19.83 -88.11,29.74 -148.68,29.74 -37.45,0 -72.41,-4.95 -104.91,-14.87 -32.48,-9.91 -60.57,-25.05 -84.25,-44.87 -23.68,-19.83 -42.4,-44.61 -56.16,-74.62 -13.77,-29.74 -20.65,-64.7 -20.65,-104.34 0,-83.98 27.25,-145.93 81.77,-185.57 54.52,-39.92 130.24,-59.75 227.15,-59.75l180.07 0c6.61,0 9.92,-3.31 9.92,-9.92l0 -57.26c0,-54.79 -13.22,-94.16 -39.65,-118.11 -26.43,-23.95 -76.54,-36.07 -150.33,-36.07 -45.15,0 -82.6,5.23 -112.33,15.69 -29.74,10.46 -56.16,23.95 -79.3,40.47 -9.91,7.71 -17.62,7.16 -23.13,-1.65l-44.6 -76c-4.41,-8.81 -3.31,-16.52 3.3,-23.13 29.74,-23.13 67.18,-41.85 112.33,-56.16 45.16,-14.32 97.47,-21.48 156.94,-21.48 112.33,0 192.18,20.65 239.54,61.95 47.36,41.3 71.03,110.4 71.03,207.32l0 523.68c0,11.01 -5.51,16.52 -16.52,16.52l-97.47 0zm-219.71 -100.77c62.78,0 111.78,-13.49 147.02,-40.47 35.25,-26.99 52.87,-65.25 52.87,-114.81l0 -87.56c0,-6.6 -3.31,-9.91 -9.92,-9.91l-158.59 0c-69.39,0 -119.49,10.18 -150.33,30.56 -30.84,20.38 -46.25,53.14 -46.25,98.3 0,40.75 14.31,71.59 42.94,92.51 28.64,20.93 69.39,31.39 122.25,31.39zm-21470.86 1329.22c0,-44.05 2.21,-82.32 6.61,-114.81 4.41,-32.48 10.47,-60.84 18.17,-85.07 22.03,-69.39 60.57,-122.25 115.64,-158.59 55.07,-36.34 120.6,-54.52 196.58,-54.52 60.57,0 113.71,11.84 159.41,35.52 45.71,23.68 82.88,56.45 111.51,98.3 5.51,8.81 3.85,16.52 -4.95,23.13l-72.69 59.47c-8.82,6.61 -16.52,6.06 -23.13,-1.65 -23.13,-28.63 -47.36,-50.1 -72.69,-64.42 -25.33,-14.31 -57.83,-21.47 -97.47,-21.47 -42.95,0 -79.85,10.18 -110.68,30.56 -30.84,20.37 -52.87,51.48 -66.08,93.33 -6.61,20.93 -11.3,44.06 -14.05,69.38 -2.76,25.33 -4.13,55.62 -4.13,90.86 0,35.24 1.37,65.8 4.13,91.69 2.75,25.88 7.44,49.29 14.05,70.21 13.21,41.85 35.24,72.96 66.08,93.34 30.83,20.37 67.72,30.55 110.68,30.55 39.64,0 72.14,-7.15 97.47,-21.47 25.33,-14.32 49.56,-35.79 72.69,-64.42 6.61,-7.71 14.31,-8.26 23.13,-1.65l72.69 59.47c8.81,6.61 10.46,14.32 4.95,23.13 -28.63,41.85 -65.8,74.62 -111.51,98.3 -45.7,23.68 -98.84,35.52 -159.41,35.52 -75.99,0 -141.52,-18.17 -196.58,-54.52 -55.07,-36.34 -93.61,-89.21 -115.64,-158.59 -7.7,-24.23 -13.76,-52.6 -18.17,-85.08 -4.4,-32.49 -6.61,-71.31 -6.61,-116.47zm1197.7 414.65c-77.09,0 -142.9,-18.72 -197.41,-56.17 -54.52,-37.44 -92.79,-89.76 -114.81,-156.93 -8.82,-27.54 -15.41,-56.45 -19.83,-86.73 -4.4,-30.29 -6.61,-68.55 -6.61,-114.81 0,-46.25 2.21,-84.25 6.61,-113.99 4.41,-29.74 11.01,-58.37 19.83,-85.9 22.02,-68.29 60.3,-120.87 114.81,-157.77 54.52,-36.9 120.32,-55.34 197.41,-55.34 77.09,0 142.9,18.45 197.41,55.34 54.52,36.9 92.78,89.48 114.81,157.77 8.81,27.53 15.41,56.16 19.82,85.9 4.41,29.74 6.61,67.73 6.61,113.99 0,46.26 -2.2,84.53 -6.61,114.81 -4.4,30.29 -11.01,59.19 -19.82,86.73 -22.03,67.17 -60.3,119.49 -114.81,156.93 -54.52,37.45 -120.32,56.17 -197.41,56.17zm0 -128.86c44.05,0 81.49,-10.74 112.33,-32.21 30.84,-21.48 52.86,-52.03 66.08,-91.69 6.61,-22.02 11.29,-44.87 14.05,-68.55 2.75,-23.68 4.13,-54.79 4.13,-93.34 0,-38.54 -1.38,-69.38 -4.13,-92.51 -2.76,-23.13 -7.44,-45.71 -14.05,-67.73 -13.22,-39.64 -35.24,-70.21 -66.08,-91.69 -30.84,-21.47 -68.29,-32.21 -112.33,-32.21 -44.06,0 -81.5,10.74 -112.33,32.21 -30.84,21.48 -52.87,52.04 -66.08,91.69 -6.61,22.02 -11.3,44.61 -14.05,67.73 -2.76,23.13 -4.13,53.96 -4.13,92.51 0,38.55 1.37,69.66 4.13,93.34 2.75,23.68 7.44,46.53 14.05,68.55 13.21,39.65 35.24,70.21 66.08,91.69 30.83,21.47 68.28,32.21 112.33,32.21zm1154.74 110.69c-11.02,0 -16.53,-5.51 -16.53,-16.52l0 -462.56c0,-63.87 -14.59,-113.44 -43.77,-148.68 -29.19,-35.24 -73.52,-52.86 -132.99,-52.86 -53.96,0 -97.75,17.34 -131.33,52.03 -33.6,34.69 -50.39,81.77 -50.39,141.24l0 470.82c0,11.01 -5.51,16.52 -16.52,16.52l-105.72 0c-11.02,0 -16.53,-5.51 -16.53,-16.52l0 -758.27c0,-11.01 5.51,-16.52 16.53,-16.52l105.72 0c11.01,0 16.52,5.51 16.52,16.52l0 72.69 1.65 0c18.72,-30.84 46.8,-56.44 84.25,-76.82 37.45,-20.37 83.15,-30.56 137.11,-30.56 85.91,0 153.08,26.99 201.54,80.95 48.46,53.96 72.69,126.1 72.69,216.41l0 495.59c0,11.01 -5.51,16.52 -16.52,16.52l-105.72 0zm19306.75 -158.59c0,-11.01 5.51,-16.52 16.52,-16.52l125.55 0c11.01,0 16.52,5.51 16.52,16.52l0 142.08c0,11.01 -5.51,16.52 -16.52,16.52l-125.55 0c-11.01,0 -16.52,-5.51 -16.52,-16.52l0 -142.08zm-17904.21 158.59c9.91,0 16.52,-6.61 16.52,-16.52l0 -512.12c0,-199.88 -94.16,-289.09 -355.18,-289.09 -132.16,0 -229.62,31.38 -297.35,79.29 -8.26,4.96 -9.91,13.22 -4.95,23.14l74.33 130.5c4.95,8.25 13.22,9.91 21.48,3.3 37.99,-28.08 97.46,-51.21 178.41,-51.21 127.2,0 163.55,34.69 163.55,109.02l0 29.74c0,6.6 -3.31,9.91 -9.92,9.91l-142.07 0c-198.24,0 -332.05,80.94 -332.05,257.71 0,170.15 123.91,244.49 265.97,244.49 109.03,0 178.41,-34.69 219.71,-87.55l1.65 0 0 52.86c0,9.91 6.61,16.52 16.52,16.52l183.38 0zm-351.88 -155.29c-75.99,0 -115.63,-28.08 -115.63,-84.25 0,-62.77 44.6,-90.86 142.07,-90.86l112.33 0c6.61,0 9.92,3.31 9.92,9.92l0 54.51c0,74.34 -49.56,110.69 -148.69,110.69zm1008.04 165.19c9.91,0 16.52,-6.61 16.52,-16.52l0 -163.55c0,-9.91 -6.61,-16.52 -16.52,-16.52l-39.65 0c-52.86,0 -72.69,-19.82 -72.69,-79.3l0 -353.51c0,-6.61 3.31,-9.92 9.92,-9.92l102.42 0c9.91,0 16.52,-6.61 16.52,-16.52l0 -137.11c0,-9.92 -6.61,-16.52 -16.52,-16.52l-102.42 0c-6.61,0 -9.92,-3.31 -9.92,-9.92l0 -214.76c0,-9.91 -6.6,-16.52 -16.52,-16.52l-196.58 0c-9.91,0 -16.52,6.61 -16.52,16.52l0 214.76c0,6.61 -3.31,9.92 -9.91,9.92l-49.56 0c-9.92,0 -16.52,6.6 -16.52,16.52l0 137.11c0,9.91 6.6,16.52 16.52,16.52l49.56 0c6.6,0 9.91,3.31 9.91,9.92l0 363.43c0,183.37 69.38,265.96 254.4,265.96l87.56 0zm608.26 8.26c147.03,0 264.32,-52.86 340.32,-133.81 6.61,-6.61 6.61,-16.52 -1.65,-23.13l-109.03 -102.42c-6.61,-8.25 -14.86,-6.61 -23.13,0 -46.25,42.95 -104.08,71.03 -183.37,71.03 -82.61,0 -143.72,-36.33 -165.2,-105.72 -4.95,-13.22 -8.25,-28.08 -9.91,-44.6 0,-6.61 3.3,-9.92 9.91,-9.92l484.03 0c11.56,0 18.17,-6.61 18.17,-16.52 0,-135.46 -9.91,-193.28 -26.43,-246.15 -46.26,-140.41 -168.5,-224.66 -345.27,-224.66 -170.15,0 -297.35,82.6 -343.61,226.32 -16.52,49.56 -26.44,107.38 -26.44,191.63 0,82.6 11.56,140.41 28.09,189.98 46.25,143.72 171.8,227.97 353.51,227.97zm-142.07 -502.2c-6.61,0 -9.91,-3.31 -9.91,-9.91 0,-24.78 3.3,-42.95 8.25,-59.48 18.17,-54.51 67.73,-87.55 133.81,-87.55 66.08,0 115.64,33.04 133.81,87.55 4.95,16.53 8.25,34.7 8.25,59.48 0,6.6 -3.3,9.91 -9.91,9.91l-264.32 0zm1444.17 484.03c9.92,0 16.53,-6.61 16.53,-16.52l0 -503.86c0,-175.11 -95.81,-297.35 -272.58,-297.35 -102.42,0 -170.15,41.3 -206.49,90.85l-1.65 0 0 -56.16c0,-9.92 -6.61,-16.52 -16.52,-16.52l-198.24 0c-9.91,0 -16.52,6.6 -16.52,16.52l0 766.52c0,9.91 6.61,16.52 16.52,16.52l198.24 0c9.91,0 16.52,-6.61 16.52,-16.52l0 -459.26c0,-87.55 46.25,-145.37 125.55,-145.37 82.6,0 123.9,57.82 123.9,145.37l0 459.26c0,9.91 6.61,16.52 16.53,16.52l198.23 0zm626.43 18.17c137.12,0 244.5,-62.78 302.32,-150.33 4.95,-8.26 4.95,-16.52 -3.31,-23.13l-143.72 -94.16c-9.91,-6.61 -18.16,-4.95 -24.77,3.3 -34.7,47.91 -69.39,69.39 -127.2,69.39 -61.13,0 -105.72,-28.09 -123.9,-85.91 -11.57,-33.04 -14.87,-71.03 -14.87,-137.11 0,-66.08 3.3,-104.08 14.87,-137.11 18.17,-57.83 62.77,-85.91 123.9,-85.91 57.82,0 92.51,21.47 127.2,69.38 6.61,8.26 14.86,9.92 24.77,3.31l143.72 -94.16c8.26,-6.61 8.26,-14.87 3.31,-23.13 -57.82,-87.56 -165.19,-150.33 -302.32,-150.33 -168.49,0 -297.35,77.64 -345.26,226.32 -16.52,47.91 -24.78,107.38 -24.78,191.63 0,84.25 8.26,143.72 24.78,191.63 47.91,148.68 176.77,226.32 345.26,226.32zm756.94 -944.93c9.91,0 16.52,-6.61 16.52,-16.52l0 -163.55c0,-9.91 -6.61,-16.52 -16.52,-16.52l-198.24 0c-9.91,0 -16.52,6.61 -16.52,16.52l0 163.55c0,9.91 6.61,16.52 16.52,16.52l198.24 0zm0 926.76c9.91,0 16.52,-6.61 16.52,-16.52l0 -766.52c0,-9.92 -6.61,-16.52 -16.52,-16.52l-198.24 0c-9.91,0 -16.52,6.6 -16.52,16.52l0 766.52c0,9.91 6.61,16.52 16.52,16.52l198.24 0z"/>
    <path class="fil0" d="M12170.57 7155.73c14.87,0 21.48,-3.3 31.39,-16.52l163.55 -214.76c6.61,-8.26 1.65,-16.53 -8.26,-16.53l-189.98 0c-13.22,0 -23.13,4.96 -29.74,16.53l-127.2 214.76c-4.95,9.91 0,16.52 9.91,16.52l150.33 0zm-57.82 928.41c168.5,0 300.66,-79.3 346.92,-224.66 18.17,-57.83 26.43,-113.99 26.43,-193.28 0,-79.3 -8.25,-135.47 -26.43,-193.28 -46.25,-145.38 -178.41,-224.66 -346.92,-224.66 -168.5,0 -300.66,79.29 -346.92,224.66 -18.17,57.82 -26.44,113.99 -26.44,193.28 0,79.3 8.26,135.46 26.44,193.28 46.25,145.37 178.41,224.66 346.92,224.66zm0 -194.93c-61.13,0 -105.72,-29.74 -123.9,-85.91 -11.57,-36.34 -14.87,-69.39 -14.87,-137.11 0,-67.73 3.3,-100.77 14.87,-137.11 18.17,-56.17 62.77,-85.91 123.9,-85.91 61.13,0 105.72,29.74 123.9,85.91 11.56,36.34 14.87,69.38 14.87,137.11 0,67.72 -3.31,100.77 -14.87,137.11 -18.17,56.17 -62.77,85.91 -123.9,85.91zm1315.31 176.76c9.92,0 16.53,-6.61 16.53,-16.52l0 -503.86c0,-175.11 -95.81,-297.35 -272.58,-297.35 -102.42,0 -170.15,41.3 -206.49,90.85l-1.65 0 0 -56.16c0,-9.92 -6.61,-16.52 -16.52,-16.52l-198.24 0c-9.91,0 -16.52,6.6 -16.52,16.52l0 766.52c0,9.91 6.61,16.52 16.52,16.52l198.24 0c9.91,0 16.52,-6.61 16.52,-16.52l0 -459.26c0,-87.55 46.25,-145.37 125.55,-145.37 82.6,0 123.9,57.82 123.9,145.37l0 459.26c0,9.91 6.61,16.52 16.53,16.52l198.23 0zm822.69 297.35c9.91,0 16.52,-6.61 16.52,-16.52l0 -355.18 1.65 0c36.34,54.52 104.07,92.52 209.8,92.52 133.8,0 229.62,-66.08 270.92,-191.63 19.83,-62.78 28.09,-123.9 28.09,-226.32 0,-104.08 -8.26,-163.55 -28.09,-226.32 -41.3,-127.2 -137.11,-191.63 -270.92,-191.63 -105.73,0 -173.46,37.99 -209.8,92.51l-1.65 0 0 -57.82c0,-9.92 -6.61,-16.52 -16.52,-16.52l-198.24 0c-9.91,0 -16.52,6.6 -16.52,16.52l0 1063.87c0,9.91 6.61,16.52 16.52,16.52l198.24 0zm153.63 -474.11c-61.13,0 -104.08,-29.74 -122.25,-85.91 -9.91,-31.39 -14.86,-66.08 -14.86,-137.11 0,-71.03 4.95,-105.73 14.86,-137.11 18.17,-57.83 61.13,-85.91 122.25,-85.91 62.78,0 105.72,28.08 123.9,85.91 9.92,31.38 14.87,66.08 14.87,137.11 0,71.03 -4.95,105.72 -14.87,137.11 -18.17,56.17 -61.12,85.91 -123.9,85.91zm961.78 194.93c147.03,0 264.32,-52.86 340.32,-133.81 6.61,-6.61 6.61,-16.52 -1.65,-23.13l-109.03 -102.42c-6.61,-8.25 -14.86,-6.61 -23.13,0 -46.25,42.95 -104.08,71.03 -183.37,71.03 -82.61,0 -143.72,-36.33 -165.2,-105.72 -4.95,-13.22 -8.25,-28.08 -9.91,-44.6 0,-6.61 3.3,-9.92 9.91,-9.92l484.03 0c11.56,0 18.17,-6.61 18.17,-16.52 0,-135.46 -9.91,-193.28 -26.43,-246.15 -46.26,-140.41 -168.5,-224.66 -345.27,-224.66 -170.15,0 -297.35,82.6 -343.61,226.32 -16.52,49.56 -26.44,107.38 -26.44,191.63 0,82.6 11.56,140.41 28.09,189.98 46.25,143.72 171.8,227.97 353.51,227.97zm-142.07 -502.2c-6.61,0 -9.91,-3.31 -9.91,-9.91 0,-24.78 3.3,-42.95 8.25,-59.48 18.17,-54.51 67.73,-87.55 133.81,-87.55 66.08,0 115.64,33.04 133.81,87.55 4.95,16.53 8.25,34.7 8.25,59.48 0,6.6 -3.3,9.91 -9.91,9.91l-264.32 0zm963.45 484.03c9.91,0 16.52,-6.61 16.52,-16.52l0 -421.26c0,-107.38 38,-170.15 123.9,-173.46 39.65,-1.65 77.64,11.56 115.64,36.34 9.91,4.95 16.52,4.95 23.13,-3.3l92.52 -168.5c4.95,-9.92 3.3,-16.52 -4.96,-23.13 -34.69,-29.74 -87.55,-47.91 -140.41,-47.91 -97.47,0 -170.16,37.99 -208.15,102.42l-1.65 0 0 -67.73c0,-9.92 -6.61,-16.52 -16.52,-16.52l-198.24 0c-9.91,0 -16.52,6.6 -16.52,16.52l0 766.52c0,9.91 6.61,16.52 16.52,16.52l198.24 0zm864.31 18.17c227.97,0 355.18,-110.69 356.83,-274.23 0,-133.81 -77.64,-224.67 -265.97,-242.85l-87.55 -9.91c-90.86,-8.26 -110.69,-29.74 -110.69,-66.08 0,-39.64 33.04,-66.08 100.77,-66.08 82.6,0 161.89,29.74 216.41,64.42 8.26,4.95 16.52,4.95 23.13,-3.3l92.52 -113.99c6.61,-8.26 4.95,-18.17 -1.65,-24.78 -74.34,-56.17 -188.32,-99.11 -323.79,-99.11 -208.15,0 -328.74,99.11 -328.74,256.05 0,143.72 92.52,227.97 261.01,244.49l89.22 9.91c92.51,8.26 113.99,31.39 113.99,69.39 0,44.6 -39.65,75.99 -123.91,75.99 -82.6,0 -173.46,-33.04 -244.49,-87.55 -8.26,-6.61 -16.52,-6.61 -23.13,0l-107.38 120.6c-6.61,6.6 -6.61,16.52 0,23.13 75.99,66.08 196.58,123.9 363.43,123.9zm932.06 0c168.5,0 300.66,-79.3 346.92,-224.66 18.17,-57.83 26.43,-113.99 26.43,-193.28 0,-79.3 -8.25,-135.47 -26.43,-193.28 -46.25,-145.38 -178.41,-224.66 -346.92,-224.66 -168.5,0 -300.66,79.29 -346.92,224.66 -18.17,57.82 -26.44,113.99 -26.44,193.28 0,79.3 8.26,135.46 26.44,193.28 46.25,145.37 178.41,224.66 346.92,224.66zm0 -194.93c-61.13,0 -105.72,-29.74 -123.9,-85.91 -11.57,-36.34 -14.87,-69.39 -14.87,-137.11 0,-67.73 3.3,-100.77 14.87,-137.11 18.17,-56.17 62.77,-85.91 123.9,-85.91 61.13,0 105.72,29.74 123.9,85.91 11.56,36.34 14.87,69.38 14.87,137.11 0,67.72 -3.31,100.77 -14.87,137.11 -18.17,56.17 -62.77,85.91 -123.9,85.91zm1315.31 176.76c9.92,0 16.53,-6.61 16.53,-16.52l0 -503.86c0,-175.11 -95.81,-297.35 -272.58,-297.35 -102.42,0 -170.15,41.3 -206.49,90.85l-1.65 0 0 -56.16c0,-9.92 -6.61,-16.52 -16.52,-16.52l-198.24 0c-9.91,0 -16.52,6.6 -16.52,16.52l0 766.52c0,9.91 6.61,16.52 16.52,16.52l198.24 0c9.91,0 16.52,-6.61 16.52,-16.52l0 -459.26c0,-87.55 46.25,-145.37 125.55,-145.37 82.6,0 123.9,57.82 123.9,145.37l0 459.26c0,9.91 6.61,16.52 16.53,16.52l198.23 0zm948.57 0c9.91,0 16.52,-6.61 16.52,-16.52l0 -512.12c0,-199.88 -94.16,-289.09 -355.18,-289.09 -132.16,0 -229.62,31.38 -297.35,79.29 -8.26,4.96 -9.91,13.22 -4.95,23.14l74.33 130.5c4.95,8.25 13.22,9.91 21.48,3.3 37.99,-28.08 97.46,-51.21 178.41,-51.21 127.2,0 163.55,34.69 163.55,109.02l0 29.74c0,6.6 -3.31,9.91 -9.92,9.91l-142.07 0c-198.24,0 -332.05,80.94 -332.05,257.71 0,170.15 123.91,244.49 265.97,244.49 109.03,0 178.41,-34.69 219.71,-87.55l1.65 0 0 52.86c0,9.91 6.61,16.52 16.52,16.52l183.38 0zm-351.88 -155.29c-75.99,0 -115.63,-28.08 -115.63,-84.25 0,-62.77 44.6,-90.86 142.07,-90.86l112.33 0c6.61,0 9.92,3.31 9.92,9.92l0 54.51c0,74.34 -49.56,110.69 -148.69,110.69zm981.61 165.19c9.91,0 16.52,-6.61 16.52,-16.52l0 -163.55c0,-9.91 -6.61,-16.52 -16.52,-16.52l-34.69 0c-47.91,0 -69.38,-21.47 -69.38,-75.99l0 -844.16c0,-9.91 -6.61,-16.52 -16.53,-16.52l-198.24 0c-9.91,0 -16.52,6.61 -16.52,16.52l0 862.33c0,176.76 71.03,254.4 247.8,254.4l87.55 0zm462.89 -936.67c9.91,0 16.52,-6.61 16.52,-16.52l0 -163.55c0,-9.91 -6.61,-16.52 -16.52,-16.52l-198.24 0c-9.91,0 -16.52,6.61 -16.52,16.52l0 163.55c0,9.91 6.61,16.52 16.52,16.52l198.24 0zm0 926.76c9.91,0 16.52,-6.61 16.52,-16.52l0 -766.52c0,-9.92 -6.61,-16.52 -16.52,-16.52l-198.24 0c-9.91,0 -16.52,6.6 -16.52,16.52l0 766.52c0,9.91 6.61,16.52 16.52,16.52l198.24 0zm915.53 0c9.92,0 16.52,-6.61 16.52,-16.52l0 -156.94c0,-9.91 -6.6,-16.52 -16.52,-16.52l-365.09 0 0 -3.31 376.65 -416.29c3.31,-4.95 4.95,-8.26 4.95,-16.52l0 -156.94c0,-9.92 -6.6,-16.52 -16.52,-16.52l-602.97 0c-9.91,0 -16.52,6.6 -16.52,16.52l0 156.94c0,9.91 6.61,16.52 16.52,16.52l346.92 0 0 3.3 -379.96 424.56c-3.3,4.96 -4.95,9.92 -4.95,16.53l0 148.68c0,9.91 6.61,16.52 16.53,16.52l624.44 0zm927.1 0c9.91,0 16.52,-6.61 16.52,-16.52l0 -512.12c0,-199.88 -94.16,-289.09 -355.18,-289.09 -132.16,0 -229.62,31.38 -297.35,79.29 -8.26,4.96 -9.91,13.22 -4.95,23.14l74.33 130.5c4.95,8.25 13.22,9.91 21.48,3.3 37.99,-28.08 97.46,-51.21 178.41,-51.21 127.2,0 163.55,34.69 163.55,109.02l0 29.74c0,6.6 -3.31,9.91 -9.92,9.91l-142.07 0c-198.24,0 -332.05,80.94 -332.05,257.71 0,170.15 123.91,244.49 265.97,244.49 109.03,0 178.41,-34.69 219.71,-87.55l1.65 0 0 52.86c0,9.91 6.61,16.52 16.52,16.52l183.38 0zm-351.88 -155.29c-75.99,0 -115.63,-28.08 -115.63,-84.25 0,-62.77 44.6,-90.86 142.07,-90.86l112.33 0c6.61,0 9.92,3.31 9.92,9.92l0 54.51c0,74.34 -49.56,110.69 -148.69,110.69zm1335.13 155.29c9.91,0 16.52,-6.61 16.52,-16.52l0 -1090.31c0,-9.91 -6.61,-16.52 -16.52,-16.52l-198.24 0c-9.91,0 -16.52,6.61 -16.52,16.52l0 381.61 -1.65 0c-37.99,-54.52 -104.07,-92.51 -209.8,-92.51 -133.8,0 -229.62,64.42 -270.92,191.63 -19.83,62.77 -28.09,122.24 -28.09,226.32 0,102.42 8.26,163.54 28.09,226.32 41.3,125.55 137.11,191.63 270.92,191.63 105.73,0 171.81,-38 209.8,-92.52l1.65 0 0 57.83c0,9.91 6.61,16.52 16.52,16.52l198.24 0zm-351.87 -176.76c-62.78,0 -105.72,-29.74 -123.9,-85.91 -9.92,-31.39 -14.87,-66.08 -14.87,-137.11 0,-71.03 4.95,-105.73 14.87,-137.11 18.17,-57.83 61.12,-85.91 123.9,-85.91 61.13,0 104.07,28.08 122.24,85.91 9.92,31.38 14.87,66.08 14.87,137.11 0,71.03 -4.95,105.72 -14.87,137.11 -18.17,56.17 -61.12,85.91 -122.24,85.91zm1307.05 176.76c9.91,0 16.52,-6.61 16.52,-16.52l0 -512.12c0,-199.88 -94.16,-289.09 -355.18,-289.09 -132.16,0 -229.62,31.38 -297.35,79.29 -8.26,4.96 -9.91,13.22 -4.95,23.14l74.33 130.5c4.95,8.25 13.22,9.91 21.48,3.3 37.99,-28.08 97.46,-51.21 178.41,-51.21 127.2,0 163.55,34.69 163.55,109.02l0 29.74c0,6.6 -3.31,9.91 -9.92,9.91l-142.07 0c-198.24,0 -332.05,80.94 -332.05,257.71 0,170.15 123.91,244.49 265.97,244.49 109.03,0 178.41,-34.69 219.71,-87.55l1.65 0 0 52.86c0,9.91 6.61,16.52 16.52,16.52l183.38 0zm-351.88 -155.29c-75.99,0 -115.63,-28.08 -115.63,-84.25 0,-62.77 44.6,-90.86 142.07,-90.86l112.33 0c6.61,0 9.92,3.31 9.92,9.92l0 54.51c0,74.34 -49.56,110.69 -148.69,110.69z"/>
   </g>
   <g>
    <path class="fil1" d="M35554 11587.03l-9068.78 -7078.65 82.56 -105.78 9068.78 7078.65 -82.56 105.78zm-80.55 -572.86l540.52 421.91 -421.91 540.51 -540.52 -421.91 421.91 -540.51z"/>
   </g>
  </g>
 </g>
</svg>
