<?xml version="1.0" encoding="UTF-8"?>
<!DOCTYPE svg PUBLIC "-//W3C//DTD SVG 1.1//EN" "http://www.w3.org/Graphics/SVG/1.1/DTD/svg11.dtd">
<!-- Creator: CorelDRAW -->
<svg xmlns="http://www.w3.org/2000/svg" xml:space="preserve" width="83.2324mm" height="81.4381mm" version="1.1" style="shape-rendering:geometricPrecision; text-rendering:geometricPrecision; image-rendering:optimizeQuality; fill-rule:evenodd; clip-rule:evenodd"
viewBox="0 0 8323.24 8143.81"
 xmlns:xlink="http://www.w3.org/1999/xlink"
 xmlns:xodm="http://www.corel.com/coreldraw/odm/2003">
 <defs>
  <style type="text/css">
   <![CDATA[
    .fil0 {fill:black}
   ]]>
  </style>
 </defs>
 <g id="Capa_x0020_1">
  <metadata id="CorelCorpID_0Corel-Layer"/>
  <path class="fil0" d="M6088.4 4804.58c56.08,758.14 -134.64,892.14 -819.74,1001.37 -66.61,435.44 -63.23,534.03 -347.6,808.43 -518.21,500.09 -989.83,545.56 -1530.88,28.9 -258.3,-246.64 -290.33,-391.07 -404.7,-817.23 -871.55,-209.55 -604.81,-218.17 -795.43,-935.75 -60.53,-227.88 -480.47,-392.94 -316.69,-973.63 26.05,-92.33 101.56,-224.3 60.33,-344.2 -338.98,-33.96 -824.19,473.15 -1534.56,87.38 -47.29,78.28 -283.65,519.33 -321.01,607.38 -100.03,235.7 -81.57,543.68 31.67,781.06 172.21,360.96 335.86,500.12 391.13,591.45 116.39,192.33 83.2,558.33 213.98,776.9 230.28,384.83 728.32,685.82 1197.38,766.08 646.07,110.55 50.62,644.33 1396.63,581.02 233.35,350.44 862.58,485.1 1361.47,290.89 355.75,-138.49 206.89,-264.7 602.11,-274.94 351.4,-9.11 505.2,-55.67 668.43,-260.96 266.03,-334.6 38.99,-228.78 538.45,-331.47 470.32,-96.69 -37,-122.21 631.92,-293.3 789.36,-201.9 588.63,-1384.13 666.23,-1234.95 14.97,28.75 477.2,-462.77 512.62,-904.98 37.1,-463.22 -216.67,-732.17 -336.92,-1095.4 -842.69,406.25 -1438.03,-201.01 -1532.51,-106.48 -121.8,121.83 428.89,851.89 -332.31,1252.43zm-2962.45 -4394.46c-1338.68,-23.34 -931.37,738.25 -1478.21,958.49 -574.33,231.35 -1074.96,550.55 -1415.69,1079.95 -288.71,448.63 -366.1,853.22 109.07,1121.71l47.55 -79.74c133.26,-290.03 76.22,-408.8 452.16,-723.54 204.37,-171.1 565.59,-314.26 903.99,-379.77 180.37,-34.91 342.67,27.88 447.56,183.01 49.88,73.79 20.13,41.97 53.4,119.87 241.29,565 572.92,408.14 1090.71,351.04 528.91,608.45 1140.83,814.66 1635.65,28.22 447.43,52.48 663.16,189.92 1010.81,-150.61 203.37,-199.19 138.25,-637.42 629.57,-538.4 1098.37,221.36 1166.25,729.49 1386.88,1183.8 698.25,-203.86 196.01,-1375.41 -825.93,-1982.28 -197.38,-117.21 -429.06,-161.42 -564.85,-244.22 -256.62,-156.5 -532.3,-797.58 -778.91,-904.34 -249.04,-107.82 -493.44,-37.63 -752.07,-0.91 -196.18,-683.42 -810.45,-272.1 -950.9,-285.6 -325,-31.25 -532.37,-441.11 -1000.79,263.32z"/>
 </g>
</svg>
